<?xml version="1.0" encoding="UTF-8" standalone="no"?>
<!-- Created with Inkscape (http://www.inkscape.org/) -->

<svg
   width="60.24926mm"
   height="31.569704mm"
   viewBox="0 0 60.249261 31.569705"
   version="1.1"
   id="svg1"
   sodipodi:docname="resistor.svg"
   inkscape:version="1.3.2 (091e20ef0f, 2023-11-25, custom)"
   xml:space="preserve"
   xmlns:inkscape="http://www.inkscape.org/namespaces/inkscape"
   xmlns:sodipodi="http://sodipodi.sourceforge.net/DTD/sodipodi-0.dtd"
   xmlns="http://www.w3.org/2000/svg"
   xmlns:svg="http://www.w3.org/2000/svg"><sodipodi:namedview
     id="namedview1"
     pagecolor="#ffffff"
     bordercolor="#999999"
     borderopacity="1"
     inkscape:showpageshadow="0"
     inkscape:pageopacity="0"
     inkscape:pagecheckerboard="0"
     inkscape:deskcolor="#d1d1d1"
     inkscape:document-units="mm"
     showgrid="false"
     inkscape:zoom="1.159211"
     inkscape:cx="64.267851"
     inkscape:cy="-3.019295"
     inkscape:window-width="1366"
     inkscape:window-height="712"
     inkscape:window-x="0"
     inkscape:window-y="0"
     inkscape:window-maximized="1"
     inkscape:current-layer="svg1"><inkscape:grid
       id="grid1"
       units="px"
       originx="-31.304527"
       originy="-31.335004"
       spacingx="0.26458334"
       spacingy="0.26458334"
       empcolor="#0099e5"
       empopacity="0.30196078"
       color="#0099e5"
       opacity="0.14901961"
       empspacing="5"
       dotted="false"
       gridanglex="30"
       gridanglez="30"
       visible="false" /></sodipodi:namedview><defs
     id="defs1"><inkscape:path-effect
       effect="bspline"
       id="path-effect7"
       is_visible="true"
       lpeversion="1.3"
       weight="33.333333"
       steps="2"
       helper_size="0"
       apply_no_weight="true"
       apply_with_weight="true"
       only_selected="false"
       uniform="false" /><inkscape:path-effect
       effect="powerstroke"
       id="path-effect5"
       is_visible="true"
       lpeversion="1.3"
       scale_width="1"
       interpolator_type="CentripetalCatmullRom"
       interpolator_beta="0.75"
       start_linecap_type="round"
       end_linecap_type="round"
       offset_points="1.5,0"
       linejoin_type="spiro"
       miter_limit="4"
       not_jump="true"
       sort_points="true"
       message="&lt;b&gt;Ctrl + clique&lt;/b&gt; no nó existente e mova-o" /></defs><path
     id="rect10"
     style="opacity:0.599809;fill:#666666;fill-opacity:0.992297;stroke-width:0.264583;stroke-linecap:round;stroke-dashoffset:2.11654"
     d="m 0.001073,9.4544646 c 0.132223,-2.232072 1.143518,-3.76731 3.493187,-4.24163 l 7.959901,0.05801 1.390848,-0.680216 0.02984,3.903297 -1.38161,-0.568127 -6.955516,0.08109 c -0.825956,0.0414 -1.515078,0.165738 -1.763993,1.474176 L 2.67891,31.569704 0,31.540724 Z"
     sodipodi:nodetypes="ccccccccccc" /><path
     id="rect10-6"
     style="opacity:0.599809;fill:#666666;fill-opacity:0.992297;stroke-width:0.264583;stroke-linecap:round;stroke-dashoffset:2.11654"
     d="M 60.24816,9.2090006 60.24926,31.29526 57.57035,31.32424 57.47553,9.2356006 c -0.248938,-1.308438 -0.93806,-1.432776 -1.764016,-1.474176 l -6.955516,-0.08109 -1.491475,0.724499 -0.08575,-3.976832 1.616302,0.597379 7.959901,-0.05801 c 2.349669,0.47432 3.360964,2.009558 3.493187,4.24163 z"
     sodipodi:nodetypes="ccccccccccc" /><path
     style="fill:#000000;stroke:none;stroke-width:1px;stroke-linecap:butt;stroke-linejoin:miter;stroke-opacity:1"
     d="m 30.977883,208.07955 0.06175,0.0229"
     id="path5" /><path
     style="fill:#000000;stroke:none;stroke-width:1px;stroke-linecap:butt;stroke-linejoin:miter;stroke-opacity:1"
     d="m 28.951176,101.16082 1.962353,106.86855"
     id="path6" /><path
     id="rect7"
     style="opacity:1;fill:#f7ad52;fill-opacity:1;stroke:#2b2200;stroke-width:0.264583;stroke-linecap:round;stroke-dashoffset:2.11654"
     d="m 12.901354,4.8677516 c 2.164026,-3.016 4.39453,-5.83032304 8.29491,-3.57875 l 17.798882,0.05892 c 3.69046,-2.358729 6.015566,0.10809 8.176415,3.155443 l 0.04423,3.839463 c -3.56964,5.3537404 -6.210859,5.3525464 -8.687793,3.4612664 l -16.741585,-0.0227 c -5.46907,3.287557 -6.575837,-1.195954 -8.942326,-3.4353774 z"
     sodipodi:nodetypes="ccccccccc" /><path
     d="m 38.394133,1.3602486 c 3.69046,-2.35873004 6.497145,0.08294 8.657994,3.130298 l 0.04423,3.839463 c -3.56964,5.3537404 -6.210859,5.3525464 -8.687793,3.4612664"
     style="opacity:1;fill:#d37909;fill-opacity:1;stroke:#2b2200;stroke-width:0.264583;stroke-linecap:round;stroke-dashoffset:2.11654"
     id="path1"
     sodipodi:nodetypes="cccc" /><path
     d="m 42.656812,0.82125361 c 1.733936,0.63813699 3.092919,2.00661899 4.274164,3.72129999 l 0.02135,3.76309 C 44.705224,11.361037 43.676041,12.113582 42.5697,12.599553"
     style="fill:#985706;fill-opacity:0.526396;stroke:none;stroke-width:0.160486;stroke-linecap:round;stroke-dashoffset:2.11654"
     id="path1-5"
     sodipodi:nodetypes="cccc" /><path
     d="m 21.539743,11.936756 c -3.69046,2.35873 -6.532569,-0.507534 -8.693418,-3.5548924 l 0.01626,-3.700966 c 3.56964,-5.35373999 6.047934,-5.26560639 8.524868,-3.3743264"
     style="fill:#d37909;fill-opacity:1;stroke:#2b2200;stroke-width:0.264583;stroke-linecap:round;stroke-dashoffset:2.11654"
     id="path1-9"
     sodipodi:nodetypes="cccc" /><path
     style="fill:#000000;stroke:none;stroke-width:1px;stroke-linecap:butt;stroke-linejoin:miter;stroke-opacity:1"
     d="M 89.166772,124.12676 102.73326,109.0567"
     id="path10" /><path
     style="fill:#ffffff;fill-opacity:0.494761;stroke:none;stroke-width:0.492835;stroke-linecap:round;stroke-dasharray:none;stroke-dashoffset:2.11654"
     id="path12-8"
     sodipodi:type="arc"
     sodipodi:cx="34.597919"
     sodipodi:cy="18.759588"
     sodipodi:rx="3.776099"
     sodipodi:ry="2.8356216"
     sodipodi:start="0"
     sodipodi:end="3.1690872"
     sodipodi:open="true"
     sodipodi:arc-type="chord"
     d="m 38.374018,18.759588 a 3.776099,2.8356216 0 0 1 -1.918099,2.468611 3.776099,2.8356216 0 0 1 -3.80567,-0.03929 3.776099,2.8356216 0 0 1 -1.827001,-2.507275 z"
     transform="matrix(0.99997665,-0.00683431,0.95973749,0.28089847,0,0)" /><path
     style="fill:#ffffff;fill-opacity:0.494761;stroke:none;stroke-width:0.492234;stroke-linecap:round;stroke-dasharray:none;stroke-dashoffset:2.11654"
     id="path12-8-0"
     sodipodi:type="arc"
     sodipodi:cx="-25.326183"
     sodipodi:cy="18.576643"
     sodipodi:rx="3.7758353"
     sodipodi:ry="2.8289113"
     sodipodi:start="0"
     sodipodi:end="3.1690872"
     sodipodi:open="true"
     sodipodi:arc-type="chord"
     d="m -21.550348,18.576643 a 3.7758353,2.8289113 0 0 1 -1.917965,2.462769 3.7758353,2.8289113 0 0 1 -3.805405,-0.0392 3.7758353,2.8289113 0 0 1 -1.826874,-2.501342 z"
     transform="matrix(-0.99979009,-0.02048855,-0.96641704,0.25697881,0,0)" /><path
     d="M 17.316818,12.34926 C 15.582882,11.711123 14.331296,10.083014 12.993312,8.5177106 l -0.02135,-3.76309 c 2.247102,-3.055393 3.279235,-3.712586 4.382626,-4.29390899"
     style="fill:#985706;fill-opacity:0.526396;stroke:none;stroke-width:0.160486;stroke-linecap:round;stroke-dashoffset:2.11654"
     id="path1-5-8"
     sodipodi:nodetypes="cccc" /><path
     d="m 11.45456,5.2671146 1.283304,-0.617921 -0.02071,3.778528 -1.254427,-0.503439 c 0.117539,-0.943679 0.100767,-1.82263 -0.0082,-2.657168 z"
     style="opacity:0.599809;fill:#1a1a1a;fill-opacity:0.992297;stroke-width:0.264583;stroke-linecap:round;stroke-dashoffset:2.11654"
     id="path1-6"
     sodipodi:nodetypes="ccccc" /><path
     d="m 48.740778,7.6762366 -1.429495,0.706438 -0.02624,-3.924185 1.502439,0.575232 c -0.197573,0.853227 -0.168981,1.684209 -0.0467,2.642515 z"
     style="opacity:0.599809;fill:#1a1a1a;fill-opacity:0.992297;stroke-width:0.264583;stroke-linecap:round;stroke-dashoffset:2.11654"
     id="path1-6-3"
     sodipodi:nodetypes="cccccc" /><path
     id="faixa1"
     style="opacity:1;fill:#502d16;fill-opacity:1;stroke-width:0.343193;stroke-linecap:round;stroke-dashoffset:2.11654"
     d="m 17.333974,0.49484148 c 1.029238,-0.38948031 2.134473,-0.47439317 4.197122,0.97597772 l 0.02469,10.3135248 c -1.956942,1.095192 -2.783744,1.199447 -4.222823,0.60751 z"
     sodipodi:nodetypes="ccccc" /><path
     id="faixa4"
     style="fill:#ac9d93;fill-opacity:1;stroke-width:0.340081;stroke-linecap:round;stroke-dashoffset:2.11654"
     d="m 42.670897,12.540117 c -1.985972,0.754688 -3.346233,-0.25769 -4.266245,-0.886731 l -0.0075,-10.1835623 c 1.004884,-0.55746814 2.312832,-1.32784757 4.279167,-0.70148346 z"
     sodipodi:nodetypes="ccccc" /><rect
     style="opacity:1;fill:#000000;fill-opacity:0.992301;stroke:none;stroke-width:0.312629;stroke-linecap:round;stroke-dasharray:none;stroke-dashoffset:2.11654"
     id="faixa2"
     width="3.4572499"
     height="10.274756"
     x="23.997129"
     y="1.4336009"
     ry="0" /><rect
     style="fill:#ff0000;fill-opacity:0.992331;stroke:none;stroke-width:0.311376;stroke-linecap:round;stroke-dasharray:none;stroke-dashoffset:2.11654"
     id="faixa3"
     width="3.4296057"
     height="10.274756"
     x="30.309326"
     y="1.3898616"
     ry="0" /><rect
     style="opacity:1;fill:#ffffff;fill-opacity:0.34844;stroke:none;stroke-width:0.212841;stroke-linecap:round;stroke-dasharray:none;stroke-dashoffset:2.11654"
     id="rect8"
     width="13.530787"
     height="1.0726148"
     x="22.988659"
     y="2.060184"
     ry="0.53630739" /><text
     xml:space="preserve"
     style="font-style:normal;font-weight:normal;font-size:10.5833px;line-height:1.25;font-family:sans-serif;fill:#000000;fill-opacity:1;stroke:none;stroke-width:0.264583"
     x="22.414141"
     y="25.050213"
     id="text13"><tspan
       sodipodi:role="line"
       id="tspan13"
       style="stroke-width:0.264583"
       x="22.414141"
       y="25.050213">1K</tspan></text></svg>
