<svg id="svg1" width="60.249mm" height="31.57mm" version="1.1" viewBox="0 0 60.249 31.57" xml:space="preserve" xmlns="http://www.w3.org/2000/svg"><path id="rect10" d="m0.001073 9.4545c0.13222-2.2321 1.1435-3.7673 3.4932-4.2416l7.9599 0.05801 1.3908-0.68022 0.02984 3.9033-1.3816-0.56813-6.9555 0.08109c-0.82596 0.0414-1.5151 0.16574-1.764 1.4742l-0.09482 22.089-2.6789-0.02898z" style="fill-opacity:.9923;fill:#666;opacity:.59981;stroke-dashoffset:2.1165;stroke-linecap:round;stroke-width:.26458"/><path id="rect10-6" d="m60.248 9.209 0.0011 22.086-2.6789 0.02898-0.09482-22.089c-0.24894-1.3084-0.93806-1.4328-1.764-1.4742l-6.9555-0.08109-1.4915 0.7245-0.08575-3.9768 1.6163 0.59738 7.9599-0.05801c2.3497 0.47432 3.361 2.0096 3.4932 4.2416z" style="fill-opacity:.9923;fill:#666;opacity:.59981;stroke-dashoffset:2.1165;stroke-linecap:round;stroke-width:.26458"/><path id="path5" d="m30.978 208.08 0.06175 0.0229"/><path id="path6" d="m28.951 101.16 1.9624 106.87"/><path id="rect7" d="m12.901 4.8678c2.164-3.016 4.3945-5.8303 8.2949-3.5788l17.799 0.05892c3.6905-2.3587 6.0156 0.10809 8.1764 3.1554l0.04423 3.8395c-3.5696 5.3537-6.2109 5.3525-8.6878 3.4613l-16.742-0.0227c-5.4691 3.2876-6.5758-1.196-8.9423-3.4354z" style="fill:#f7ad52;stroke-dashoffset:2.1165;stroke-linecap:round;stroke-width:.26458;stroke:#2b2200"/><path id="path1" d="m38.394 1.3602c3.6905-2.3587 6.4971 0.08294 8.658 3.1303l0.04423 3.8395c-3.5696 5.3537-6.2109 5.3525-8.6878 3.4613" style="fill:#d37909;stroke-dashoffset:2.1165;stroke-linecap:round;stroke-width:.26458;stroke:#2b2200"/><path id="path1-5" d="m42.657 0.82125c1.7339 0.63814 3.0929 2.0066 4.2742 3.7213l0.02135 3.7631c-2.2471 3.0554-3.2763 3.8079-4.3826 4.2939" style="fill-opacity:.5264;fill:#985706"/><path id="path1-9" d="m21.54 11.937c-3.6905 2.3587-6.5326-0.50753-8.6934-3.5549l0.01626-3.701c3.5696-5.3537 6.0479-5.2656 8.5249-3.3743" style="fill:#d37909;stroke-dashoffset:2.1165;stroke-linecap:round;stroke-width:.26458;stroke:#2b2200"/><path id="path10" d="m89.167 124.13 13.566-15.07"/><path id="path12-8" transform="matrix(.99998 -.0068343 .95974 .2809 0 0)" d="m38.374 18.76a3.7761 2.8356 0 0 1-1.9181 2.4686 3.7761 2.8356 0 0 1-3.8057-0.03929 3.7761 2.8356 0 0 1-1.827-2.5073z" style="fill-opacity:.49476;fill:#fff"/><path id="path12-8-0" transform="matrix(-.99979 -.020489 -.96642 .25698 0 0)" d="m-21.55 18.577a3.7758 2.8289 0 0 1-1.918 2.4628 3.7758 2.8289 0 0 1-3.8054-0.0392 3.7758 2.8289 0 0 1-1.8269-2.5013z" style="fill-opacity:.49476;fill:#fff"/><path id="path1-5-8" d="m17.317 12.349c-1.7339-0.63814-2.9855-2.2662-4.3235-3.8315l-0.02135-3.7631c2.2471-3.0554 3.2792-3.7126 4.3826-4.2939" style="fill-opacity:.5264;fill:#985706"/><path id="path1-6" d="m11.455 5.2671 1.2833-0.61792-0.02071 3.7785-1.2544-0.50344c0.11754-0.94368 0.10077-1.8226-0.0082-2.6572z" style="fill-opacity:.9923;fill:#1a1a1a;opacity:.59981;stroke-dashoffset:2.1165;stroke-linecap:round;stroke-width:.26458"/><path id="path1-6-3" d="m48.741 7.6762-1.4295 0.70644-0.02624-3.9242 1.5024 0.57523c-0.19757 0.85323-0.16898 1.6842-0.0467 2.6425z" style="fill-opacity:.9923;fill:#1a1a1a;opacity:.59981;stroke-dashoffset:2.1165;stroke-linecap:round;stroke-width:.26458"/><path id="faixa1" d="m17.334 0.49484c1.0292-0.38948 2.1345-0.47439 4.1971 0.97598l0.02469 10.314c-1.9569 1.0952-2.7837 1.1994-4.2228 0.60751z" style="fill:#502d16;stroke-dashoffset:2.1165;stroke-linecap:round;stroke-width:.34319"/><path id="faixa4" d="m42.671 12.54c-1.986 0.75469-3.3462-0.25769-4.2662-0.88673l-0.0075-10.184c1.0049-0.55747 2.3128-1.3278 4.2792-0.70148z" style="fill:#ac9d93;stroke-dashoffset:2.1165;stroke-linecap:round;stroke-width:.34008"/><rect id="faixa2" x="23.997" y="1.4336" width="3.4572" height="10.275" ry="0" style="fill-opacity:.9923"/><rect id="faixa3" x="30.309" y="1.3899" width="3.4296" height="10.275" ry="0" style="fill-opacity:.99233;fill:#f00"/><rect id="rect8" x="22.989" y="2.0602" width="13.531" height="1.0726" ry=".53631" style="fill-opacity:.34844;fill:#fff"/><text id="text13" x="22.414141" y="25.050213" style="fill:#000000;font-family:sans-serif;font-size:8px;line-height:1.25;stroke-width:.26458" xml:space="preserve"><tspan id="tspan13" x="22.414141" y="25.050213" style="stroke-width:.26458">1 KΩ</tspan></text></svg>
