<svg width="191.42mm" height="95.56mm" version="1.1" viewBox="0 0 191.42 95.56" xmlns="http://www.w3.org/2000/svg" xmlns:xlink="http://www.w3.org/1999/xlink"><defs><pattern id="d" xlink:href="#g" patternTransform="matrix(0 .2 -.2 0 0 1e-6)" preserveAspectRatio="xMidYMid"/><pattern id="e" xlink:href="#f" patternTransform="matrix(0 .2 -.2 0 0 -1.1e-5)" preserveAspectRatio="xMidYMid"/><pattern id="g" xlink:href="#i" patternTransform="matrix(0 .2 -.2 0 1.2652e-6 8.0945e-7)" preserveAspectRatio="xMidYMid"/><pattern id="i" width="2" height="10" fill="#8acb96" patternTransform="translate(0) scale(2)" patternUnits="userSpaceOnUse" preserveAspectRatio="xMidYMid"><rect y="-.5" width="1" height="11"/></pattern><marker id="a" overflow="visible" markerHeight="1" markerWidth="1" orient="auto-start-reverse" preserveAspectRatio="xMidYMid" refX="3" viewBox="0 0 1 1"><path transform="scale(.5)" d="m5.77 0-8.65 5v-10z" fill="context-stroke" fill-rule="evenodd" stroke="context-stroke" stroke-width="1pt"/></marker><marker id="b" overflow="visible" markerHeight="2" markerWidth="2" orient="auto-start-reverse" preserveAspectRatio="xMidYMid" refX="3" viewBox="0 0 1 1"><path transform="scale(.5)" d="m5.77 0-8.65 5v-10z" fill="context-stroke" fill-rule="evenodd" stroke="context-stroke" stroke-width="1pt"/></marker><pattern id="f" xlink:href="#h" patternTransform="matrix(0 .2 -.2 0 -2.7268e-7 -1.1494e-5)" preserveAspectRatio="xMidYMid"/><pattern id="h" width="2" height="10" fill="#8acb96" patternTransform="translate(0) scale(2)" patternUnits="userSpaceOnUse" preserveAspectRatio="xMidYMid"><rect y="-.5" width="1" height="11"/></pattern><marker id="c" overflow="visible" markerHeight="1" markerWidth="1" orient="auto-start-reverse" preserveAspectRatio="xMidYMid" refX="3" viewBox="0 0 1 1"><path transform="scale(.5)" d="m5.77 0-8.65 5v-10z" fill="context-stroke" fill-rule="evenodd" stroke="context-stroke" stroke-width="1pt"/></marker></defs><g transform="matrix(1.5379 0 0 1.5379 -34.374 -364.36)"><g fill="none" stroke="#b3b3b3" stroke-linecap="round" stroke-miterlimit="1" stroke-width=".13898"><path d="m121.73 264v9.7862"/><path d="m126.73 264v9.7862"/><path d="m131.73 264v9.7862"/><path d="m136.73 264v9.7862"/><path d="m141.73 264v9.7862"/><path d="m146.73 264v9.7862"/></g><rect x="121.72" y="266.52" width="25.012" height="4.7333" fill="#ffe680" stroke="#000" stroke-dashoffset="46.29" stroke-width=".17204"/><text x="132.06854" y="270.11475" fill="#000000" font-family="FreeSans" font-size="4.4234px" stroke-dashoffset="46.29" stroke-width=".47554" style="line-height:normal;text-decoration-color:#000000" xml:space="preserve"><tspan x="132.06854" y="270.11475" fill="#000000" stroke-width=".47554">rd</tspan></text></g><g transform="matrix(.79623 0 0 .79005 27.323 -143.47)"><g fill="none" stroke="#b3b3b3" stroke-linecap="round" stroke-miterlimit="1" stroke-width=".2695"><path d="m25.343 253.36v9.7862"/><path d="m30.345 253.36v9.7862"/><path d="m35.346 253.36v9.7862"/><path d="m40.348 253.36v9.7862"/></g><rect x="25.341" y="255.89" width="15.003" height="4.7337" fill="#b3ff80" stroke="#000" stroke-dashoffset="46.29" stroke-width=".33359"/><text x="26.975464" y="259.72769" fill="#000000" font-family="FreeSans" font-size="4.4234px" stroke-dashoffset="46.29" stroke-width=".9221" style="line-height:normal;text-decoration-color:#000000" xml:space="preserve"><tspan x="26.975464" y="259.72769" fill="#000000" stroke-width=".9221">funct3</tspan></text></g><g transform="matrix(1.5379 0 0 1.5379 -16.333 -336.84)"><g fill="none" stroke="#b3b3b3" stroke-linecap="round" stroke-miterlimit="1" stroke-width=".13898"><path d="m86.752 230.81v9.7862"/><path d="m91.754 230.81v9.7862"/><path d="m96.755 230.81v9.7862"/><path d="m101.76 230.81v9.7862"/><path d="m106.76 230.81v9.7862"/><path d="m111.76 230.81v9.7862"/></g><rect x="86.752" y="233.34" width="25.006" height="4.7332" fill="#faa" stroke="#000" stroke-dashoffset="46.29" stroke-width=".17204"/><text x="96.622101" y="237.08057" fill="#000000" font-family="FreeSans" font-size="4.4234px" stroke-dashoffset="46.29" stroke-width=".47554" style="line-height:normal;text-decoration-color:#000000" xml:space="preserve"><tspan x="96.622101" y="237.08057" fill="#000000" stroke-width=".47554">rs1</tspan></text></g><g stroke="#000"><circle cx="106.69" cy="70.708" r="15.386" fill="#fd5" stroke-dashoffset="46.29" stroke-width=".26458"/><path d="m136.36 29.291 0.085 6.9463" fill="none" marker-end="url(#b)" stroke-width=".40691px"/><rect x="76.628" y="66.863" width="8.5423" height="7.6896" fill="#fd5" stroke-dashoffset="46.29" stroke-width=".26458"/><path d="m85.171 70.708h6.138" fill="none" marker-end="url(#a)" stroke-width=".40691px"/></g><g><g stroke-dashoffset="46.29"><text x="100.13879" y="72.59153" fill="#000000" font-family="FreeSans" font-size="6.8028px" stroke-width=".73135" style="line-height:normal;text-decoration-color:#000000" xml:space="preserve"><tspan x="100.13879" y="72.59153" fill="#000000" stroke-width=".73135">ALU</tspan></text><rect x="131.56" y="36.238" width="10.002" height="19.727" fill="url(#d)" stroke="#71c837" stroke-width=".26458"/><rect x="167.44" y="60.845" width="10.002" height="19.727" fill="url(#e)" stroke="#71c837" stroke-width=".26458"/></g><path d="m131.56 50.221-12.993 10.704" fill="none" marker-end="url(#a)" stroke="#000" stroke-width=".81382"/></g><g fill="#000000" fill-opacity=".51212" font-family="'Adwaita Mono'" font-size="3.0794px" stroke-dashoffset="46.29" stroke-width=".26458"><text x="129.96176" y="59.917995" style="line-height:normal;text-decoration-color:#000000" xml:space="preserve"><tspan x="129.96176" y="59.917995" fill="#000000" stroke-width=".26458">32 bits </tspan></text><text x="137.21994" y="74.534065" style="line-height:normal;text-decoration-color:#000000" xml:space="preserve"><tspan x="137.21994" y="74.534065" fill="#000000" stroke-width=".26458">32 bits </tspan></text><text x="157.21298" y="83.862724" style="line-height:normal;text-decoration-color:#000000" xml:space="preserve"><tspan x="157.21298" y="83.862724" fill="#000000" stroke-width=".26458">32 registradores</tspan></text></g><g fill="none"><g stroke="#000"><path d="m172.12 52.817 0.14388 8.028" marker-end="url(#a)" stroke-width=".40691px"/><path d="m122.08 70.708h45.363" marker-end="url(#b)" stroke-width=".40691"/><path d="m59.449 62.771 17.179 6.3566" marker-end="url(#b)" stroke-width=".26458px"/></g><g stroke="#b3b3b3" stroke-linecap="round" stroke-miterlimit="1" stroke-width=".21374"><path d="m3.9205 26.613v5.711"/><path d="m1.074 26.613v5.711"/><path d="m6.8607 26.613v5.711"/><path d="m9.801 26.613v5.711"/><path d="m12.741 26.613v5.711"/><path d="m15.681 26.613v5.711"/><path d="m18.622 26.613v5.711"/><path d="m21.562 26.613v5.711"/><path d="m24.502 26.613v5.711"/><path d="m27.442 26.613v5.711"/><path d="m30.383 26.613v5.711"/><path d="m33.323 26.613v5.711"/><path d="m36.263 26.613v5.711"/><path d="m39.203 26.613v5.711"/><path d="m42.143 26.613v5.711"/><path d="m45.084 26.613v5.711"/><path d="m48.024 26.613v5.711"/><path d="m50.964 26.613v5.711"/><path d="m53.904 26.613v5.711"/><path d="m56.845 26.613v5.711"/><path d="m59.785 26.613v5.711"/><path d="m62.725 26.613v5.711"/><path d="m65.665 26.613v5.711"/><path d="m68.606 26.613v5.711"/><path d="m71.546 26.613v5.711"/><path d="m74.486 26.613v5.711"/><path d="m77.426 26.613v5.711"/><path d="m80.366 26.613v5.711"/><path d="m83.307 26.613v5.711"/><path d="m86.247 26.613v5.711"/><path d="m89.187 26.613v5.711"/><path d="m92.127 26.613v5.711"/><path d="m95.068 26.613v5.711"/></g></g><g stroke-dashoffset="46.29"><rect x="1.0054" y="27.976" width="58.866" height="2.769" fill="#ff8080" stroke="#000" stroke-width=".25502"/><text transform="scale(1.0037 .99635)" x="24.412743" y="30.040825" fill="#000000" font-family="FreeSans" font-size="2.077px" stroke-width=".73136" style="line-height:normal;text-decoration-color:#000000" xml:space="preserve"><tspan x="24.412743" y="30.040825" fill="#000000" stroke-width=".73136">imm[11] Extendido</tspan></text><rect x="59.871" y="27.976" width="35.943" height="2.7635" fill="#ff8080" stroke="#000" stroke-width=".26458"/><text transform="scale(1.0037 .99635)" x="71.56942" y="30.04908" fill="#000000" font-family="FreeSans" font-size="2.077px" stroke-width=".73136" style="line-height:normal;text-decoration-color:#000000" xml:space="preserve"><tspan x="71.56942" y="30.04908" fill="#000000" stroke-width=".73136">imm[11:0]</tspan></text></g><g fill="none"><path d="m50.964 32.323 44.13 28.278" marker-end="url(#a)" stroke="#000" stroke-width=".81382"/><path d="m30.132 7.6323 48 18" marker-end="url(#c)" stroke="#000" stroke-width=".81382"/><g stroke="#b3b3b3" stroke-linecap="round" stroke-miterlimit="1" stroke-width=".21374"><path d="m4.7908 0.20868v9.433"/><path d="m0.10687 0.10687v9.433"/><path d="m9.6119 0.20868v9.433"/><path d="m14.433 0.20868v9.433"/><path d="m19.254 0.20868v9.433"/><path d="m24.075 0.20868v9.433"/><path d="m28.896 0.20868v9.433"/><path d="m33.717 0.20868v9.433"/><path d="m38.538 0.20868v9.433"/><path d="m43.36 0.20868v9.433"/><path d="m48.181 0.20868v9.433"/><path d="m53.002 0.20868v9.433"/><path d="m57.823 0.20869v9.433"/><path d="m62.644 0.20869v9.433"/><path d="m67.465 0.20869v9.433"/><path d="m72.286 0.20869v9.433"/><path d="m77.107 0.20869v9.433"/><path d="m81.928 0.20869v9.433"/><path d="m86.75 0.20869v9.433"/><path d="m91.571 0.20869v9.433"/><path d="m96.392 0.20869v9.433"/><path d="m101.21 0.20869v9.433"/><path d="m106.03 0.20869v9.433"/><path d="m110.86 0.20869v9.433"/><path d="m115.68 0.20869v9.433"/><path d="m120.5 0.2087v9.433"/><path d="m125.32 0.2087v9.433"/><path d="m130.14 0.2087v9.433"/><path d="m134.96 0.2087v9.433"/><path d="m139.78 0.2087v9.433"/><path d="m144.6 0.2087v9.433"/><path d="m149.42 0.2087v9.433"/><path d="m154.25 0.2087v9.433"/></g></g><g stroke="#000" stroke-dashoffset="46.29" stroke-width=".26458"><rect x=".34604" y="2.5411" width="58.721" height="4.5645" fill="#ececec"/><rect x="119.66" y="2.533" width="34.573" height="4.5807" fill="#fc0"/><rect x="57.798" y="2.5422" width="24.114" height="4.5645" fill="#faa"/><rect x="96.375" y="2.5422" width="24.104" height="4.5625" fill="#ffe680"/><rect x="81.913" y="2.5422" width="14.462" height="4.5628" fill="#b3ff80"/></g><g fill="#000000" font-family="FreeSans" stroke-dashoffset="46.29"><text x="160.13229" y="7.2988696" font-size="6.5796px" stroke-width=".73135" style="line-height:normal;text-decoration-color:#000000" xml:space="preserve"><tspan x="160.13229" y="7.2988696" fill="#000000" stroke-width=".73135">I</tspan></text><g font-size="4.2637px" stroke-width=".73135"><text x="130.55267" y="6.0019641" style="line-height:normal;text-decoration-color:#000000" xml:space="preserve"><tspan x="130.55267" y="6.0019641" fill="#000000" stroke-width=".73135">0010011</tspan></text><text x="106.32614" y="6.2700992" style="line-height:normal;text-decoration-color:#000000" xml:space="preserve"><tspan x="106.32614" y="6.2700992" fill="#000000" stroke-width=".73135">rd</tspan></text><text x="67.312347" y="6.1446261" style="line-height:normal;text-decoration-color:#000000" xml:space="preserve"><tspan x="67.312347" y="6.1446261" fill="#000000" stroke-width=".73135">rs1</tspan></text><text x="83.039307" y="6.3036609" style="line-height:normal;text-decoration-color:#000000" xml:space="preserve"><tspan x="83.039307" y="6.3036609" fill="#000000" stroke-width=".73135">funct3</tspan></text></g><text x="19.357113" y="5.7654834" font-size="3.4182px" stroke-width=".73135" style="line-height:normal;text-decoration-color:#000000" xml:space="preserve"><tspan x="19.357113" y="5.7654834" fill="#000000" stroke-width=".73135">imm[11:0]</tspan></text></g><rect x="1.2612" y="3.5761" width="2.6521" height="2.5705" fill="#f00" fill-opacity=".47612"/><path d="m3.1323 7.6323 30 19" fill="#f00" fill-rule="evenodd" marker-end="url(#c)" stroke="#ff8080" stroke-width=".81382"/></svg>
