<svg width="165.73mm" height="77.242mm" version="1.1" viewBox="0 0 165.73 77.242" xmlns="http://www.w3.org/2000/svg" xmlns:xlink="http://www.w3.org/1999/xlink"><defs><marker id="a" overflow="visible" markerHeight="1" markerWidth="1" orient="auto-start-reverse" preserveAspectRatio="xMidYMid" refX="3" viewBox="0 0 1 1"><path transform="scale(.5)" d="m5.77 0-8.65 5v-10z" fill="context-stroke" fill-rule="evenodd" stroke="context-stroke" stroke-width="1pt"/></marker><marker id="e" overflow="visible" markerHeight="1" markerWidth="1" orient="auto-start-reverse" preserveAspectRatio="xMidYMid" refX="3" viewBox="0 0 1 1"><path transform="scale(.5)" d="m5.77 0-8.65 5v-10z" fill="context-stroke" fill-rule="evenodd" stroke="context-stroke" stroke-width="1pt"/></marker><pattern id="c" patternTransform="matrix(0 .2 -.2 0 1.2051e-7 -1.1907e-5)" preserveAspectRatio="xMidYMid" xlink:href="#d"/><pattern id="d" patternTransform="matrix(0 .2 -.2 0 -2.7268e-7 -1.1494e-5)" preserveAspectRatio="xMidYMid" xlink:href="#i"/><pattern id="i" width="2" height="10" fill="#8acb96" patternTransform="translate(0) scale(2)" patternUnits="userSpaceOnUse" preserveAspectRatio="xMidYMid"><rect y="-.5" width="1" height="11"/></pattern><marker id="h" overflow="visible" markerHeight="1" markerWidth="1" orient="auto-start-reverse" preserveAspectRatio="xMidYMid" refX="3" viewBox="0 0 1 1"><path transform="scale(.5)" d="m5.77 0-8.65 5v-10z" fill="context-stroke" fill-rule="evenodd" stroke="context-stroke" stroke-width="1pt"/></marker></defs><text x="72.563515" y="61.114979" fill="#000000" fill-opacity=".51212" font-family="'Adwaita Mono'" font-size="3.0794px" stroke-dashoffset="46.29" stroke-width=".26458" style="line-height:normal;text-decoration-color:#000000" xml:space="preserve"><tspan x="72.563515" y="61.114979" fill="#000000" stroke-width=".26458">32 bits </tspan></text><g transform="translate(-.094793 2.4165)" fill="none" stroke="#b3b3b3" stroke-linecap="round" stroke-miterlimit="1" stroke-width=".21374"><path d="m3.5125 25.336v5.711"/><path d="m0.666 25.336v5.711"/><path d="m6.4528 25.336v5.711"/><path d="m9.393 25.336v5.711"/><path d="m12.333 25.336v5.711"/><path d="m15.273 25.336v5.711"/><path d="m18.214 25.336v5.711"/><path d="m21.154 25.336v5.711"/><path d="m24.094 25.336v5.711"/><path d="m27.034 25.336v5.711"/><path d="m29.975 25.336v5.711"/><path d="m32.915 25.336v5.711"/><path d="m35.855 25.336v5.711"/><path d="m38.795 25.336v5.711"/><path d="m41.735 25.336v5.711"/><path d="m44.676 25.336v5.711"/><path d="m47.616 25.336v5.711"/><path d="m50.556 25.336v5.711"/><path d="m53.496 25.336v5.711"/><path d="m56.437 25.336v5.711"/><path d="m59.377 25.336v5.711"/><path d="m62.317 25.336v5.711"/><path d="m65.257 25.336v5.711"/><path d="m68.198 25.336v5.711"/><path d="m71.138 25.336v5.711"/><path d="m74.078 25.336v5.711"/><path d="m77.018 25.336v5.711"/><path d="m79.958 25.336v5.711"/><path d="m82.899 25.336v5.711"/><path d="m85.839 25.336v5.711"/><path d="m88.779 25.336v5.711"/><path d="m91.719 25.336v5.711"/><path d="m94.66 25.336v5.711"/></g><rect x="59.282" y="29.223" width="35.168" height="2.769" fill="#ff8080" stroke="#000" stroke-dashoffset="46.29" stroke-width=".25502"/><rect x=".57121" y="29.226" width="58.79" height="2.7635" fill="#ff8080" stroke="#000" stroke-dashoffset="46.29" stroke-width=".26458"/><g fill="none"><path d="m41.75 33.915-0.05045 29.033 66.129-0.14972" marker-end="url(#a)" stroke="#000" stroke-width=".81382"/><path d="m57.533 9.7095c-0.05691 9.019-22.293 9.8106-28.512 11.027-3.7539 0.73421-2.2339 4.349-2.2351 6.4328" marker-end="url(#e)" stroke="#000" stroke-width=".81382"/><g stroke="#b3b3b3" stroke-linecap="round" stroke-miterlimit="1" stroke-width=".21374"><path d="m5.0864 3.1624v9.7862"/><path d="m0.24409 3.1624v9.7862"/><path d="m10.088 3.1624v9.7862"/><path d="m15.09 3.1624v9.7862"/><path d="m20.091 3.1624v9.7862"/><path d="m25.093 3.1624v9.7862"/><path d="m30.095 3.1624v9.7862"/><path d="m35.096 3.1624v9.7862"/><path d="m40.098 3.1624v9.7862"/><path d="m45.099 3.1624v9.7862"/><path d="m50.101 3.1624v9.7862"/><path d="m55.103 3.1624v9.7862"/><path d="m60.104 3.1624v9.7862"/><path d="m65.106 3.1624v9.7862"/><path d="m70.108 3.1624v9.7862"/><path d="m75.109 3.1624v9.7862"/><path d="m80.111 3.1624v9.7862"/><path d="m85.113 3.1624v9.7862"/><path d="m90.114 3.1624v9.7862"/><path d="m95.116 3.1624v9.7862"/><path d="m100.12 3.1624v9.7862"/><path d="m105.12 3.1624v9.7862"/><path d="m110.12 3.1624v9.7862"/><path d="m115.12 3.1624v9.7862"/><path d="m120.12 3.1624v9.7862"/><path d="m125.13 3.1624v9.7862"/><path d="m130.13 3.1624v9.7862"/><path d="m135.13 3.1624v9.7862"/><path d="m140.13 3.1624v9.7862"/><path d="m145.13 3.1624v9.7862"/><path d="m150.13 3.1624v9.7862"/><path d="m155.14 3.1624v9.7862"/><path d="m160.14 3.1624v9.7862"/></g></g><g stroke-dashoffset="46.29"><rect x=".12751" y="5.4989" width="100.14" height="4.745" fill="#ececec" stroke="#000" stroke-width=".25502"/><rect x="125.15" y="5.4931" width="34.979" height="4.745" fill="#fc0" stroke="#000" stroke-width=".25502"/><text x="161.36436" y="10.231983" fill="#000000" font-family="FreeSans" font-size="6.8259px" stroke-width=".73135" style="line-height:normal;text-decoration-color:#000000" xml:space="preserve"><tspan x="161.36436" y="10.231983" fill="#000000" stroke-width=".73135">U</tspan></text><text x="135.68153" y="9.278265" fill="#000000" font-family="FreeSans" font-size="4.4234px" stroke-width=".73135" style="line-height:normal;text-decoration-color:#000000" xml:space="preserve"><tspan x="135.68153" y="9.278265" fill="#000000"/></text><rect x="100.14" y="5.4989" width="25.006" height="4.7333" fill="#ffe680" stroke="#000" stroke-width=".26669"/></g><g fill="#000000" font-family="FreeSans" stroke-dashoffset="46.29"><text x="110.56827" y="9.28018" font-size="4.4234px" stroke-width=".73135" style="line-height:normal;text-decoration-color:#000000" xml:space="preserve"><tspan x="110.56827" y="9.28018" fill="#000000" stroke-width=".73135">rd</tspan></text><text x="40.097851" y="8.8493567" font-size="3.5462px" stroke-width=".73135" style="line-height:normal;text-decoration-color:#000000" xml:space="preserve"><tspan x="40.097851" y="8.8493567" fill="#000000" stroke-width=".73135">imm[31:12]</tspan></text><text x="26.46706" y="31.165051" font-size="2.0071px" stroke-width=".73136" style="line-height:normal;text-decoration-color:#000000" xml:space="preserve"><tspan x="26.46706" y="31.165051" fill="#000000" stroke-width=".73136">imm[31:12]</tspan></text></g><path d="m133.33 6.3861q-0.3762 0-0.56672 0.37138-0.1881 0.36897-0.1881 1.1117 0 0.74035 0.1881 1.1117 0.19052 0.36897 0.56672 0.36897 0.37862 0 0.56672-0.36897 0.19052-0.37138 0.19052-1.1117 0-0.74276-0.19052-1.1117-0.1881-0.37138-0.56672-0.37138zm0-0.38585q0.60531 0 0.92364 0.4799 0.32073 0.47749 0.32073 1.3891 0 0.90916-0.32073 1.3891-0.31833 0.47749-0.92364 0.47749-0.6053 0-0.92604-0.47749-0.31833-0.4799-0.31833-1.3891 0-0.91157 0.31833-1.3891 0.32074-0.4799 0.92604-0.4799zm2.1849 3.2556h0.79582v-2.7468l-0.86576 0.17363v-0.44373l0.86093-0.17363h0.48714v3.1905h0.79582v0.40997h-2.074zm3.1423 0h0.79582v-2.7468l-0.86576 0.17363v-0.44373l0.86093-0.17363h0.48714v3.1905h0.79582v0.40997h-2.074zm4.0997-2.8698q-0.37621 0-0.56672 0.37138-0.1881 0.36897-0.1881 1.1117 0 0.74035 0.1881 1.1117 0.19051 0.36897 0.56672 0.36897 0.37862 0 0.56672-0.36897 0.19051-0.37138 0.19051-1.1117 0-0.74276-0.19051-1.1117-0.1881-0.37138-0.56672-0.37138zm0-0.38585q0.6053 0 0.92363 0.4799 0.32074 0.47749 0.32074 1.3891 0 0.90916-0.32074 1.3891-0.31833 0.47749-0.92363 0.47749-0.60531 0-0.92604-0.47749-0.31833-0.4799-0.31833-1.3891 0-0.91157 0.31833-1.3891 0.32073-0.4799 0.92604-0.4799zm2.1849 3.2556h0.79582v-2.7468l-0.86575 0.17363v-0.44373l0.86093-0.17363h0.48714v3.1905h0.79582v0.40997h-2.074zm3.1423 0h0.79582v-2.7468l-0.86575 0.17363v-0.44373l0.86093-0.17363h0.48714v3.1905h0.79581v0.40997h-2.074zm3.1423 0h0.79582v-2.7468l-0.86575 0.17363v-0.44373l0.86093-0.17363h0.48713v3.1905h0.79582v0.40997h-2.074z" fill="#1f1f1f" stroke-dashoffset="46.29" stroke-width=".79375" aria-label="0110111"/><rect x="107.83" y="52.935" width="10.002" height="19.727" fill="url(#c)" stroke="#71c837" stroke-dashoffset="46.29" stroke-width=".26458"/><text x="98.535141" y="76.555687" fill="#000000" fill-opacity=".51212" font-family="'Adwaita Mono'" font-size="3.0794px" stroke-dashoffset="46.29" stroke-width=".26458" style="line-height:normal;text-decoration-color:#000000" xml:space="preserve"><tspan x="98.535141" y="76.555687" fill="#000000" stroke-width=".26458">32 registradores</tspan></text><path d="m112.64 10.232-0.0502 42.246" fill="none" marker-end="url(#h)" stroke="#000" stroke-width=".40691px"/><g fill="#666" stroke-dashoffset="46.29"><g stroke-width=".73135"><path d="m1.5539 0.26521c0.26866 0 0.43054 0.15844 0.43054 0.41676 0 0.31688-0.19633 0.37543-0.59931 0.38232v0.25832h0.037887l0.12744-0.00344c0.3341 0 0.50631 0.15155 0.50631 0.44431 0 0.30654-0.18944 0.48909-0.50631 0.48909-0.33065 0-0.49253-0.16533-0.5132-0.52009h-0.3031c0.037887 0.53042 0.29621 0.78874 0.80597 0.78874 0.50287 0 0.82663-0.29965 0.82663-0.76119 0-0.30999-0.12055-0.4822-0.41332-0.58209 0.22732-0.089556 0.34099-0.26177 0.34099-0.50632 0-0.4202-0.27899-0.67164-0.74397-0.67164-0.49253 0-0.7543 0.26866-0.76463 0.78874h0.3031c0.0068886-0.26521 0.079219-0.52353 0.46498-0.52353zm1.8771 0.43743v1.7394h0.3031v-2.442h-0.19977c-0.10677 0.37543-0.17566 0.42709-0.64408 0.48565v0.21699z" aria-label="31"/><path d="m6.2704 0.26521c0.26866 0 0.43054 0.15844 0.43054 0.41676 0 0.31688-0.19633 0.37543-0.59931 0.38232v0.25832h0.037887l0.12744-0.00344c0.3341 0 0.50631 0.15155 0.50631 0.44431 0 0.30654-0.18944 0.48909-0.50631 0.48909-0.33065 0-0.49253-0.16533-0.5132-0.52009h-0.3031c0.037887 0.53042 0.29621 0.78874 0.80597 0.78874 0.50287 0 0.82663-0.29965 0.82663-0.76119 0-0.30999-0.12055-0.4822-0.41332-0.58209 0.22732-0.089556 0.34099-0.26177 0.34099-0.50632 0-0.4202-0.27899-0.67164-0.74397-0.67164-0.49253 0-0.7543 0.26866-0.76463 0.78874h0.3031c0.0068886-0.26521 0.079219-0.52353 0.46498-0.52353zm1.1332 0.9954c0 0.82319 0.27554 1.2606 0.79908 1.2606 0.51664 0 0.79908-0.43743 0.79908-1.2399 0-0.70953-0.19288-1.2813-0.79908-1.2813-0.34099 0-0.79908 0.18944-0.79908 1.2606zm0.79908-0.99196c0.32721 0 0.48909 0.33065 0.48909 0.98507 0 0.6923-0.15844 1.0161-0.49598 1.0161-0.32032 0-0.4822-0.33754-0.4822-1.0057 0-0.66819 0.16188-0.9954 0.48909-0.9954z" aria-label="30"/><path d="m10.498 0.8473h0.3031c0.01378-0.22732 0.07233-0.58209 0.49254-0.58209 0.27554 0 0.4822 0.19633 0.4822 0.45809 0 0.19288-0.11366 0.35821-0.33065 0.4822l-0.31688 0.1791c-0.50976 0.28932-0.65786 0.52009-0.68542 1.0574h1.6257v-0.29965h-1.2847c0.031-0.19977 0.13433-0.33754 0.44087-0.50287l0.34443-0.18599c0.34098-0.18599 0.51664-0.43743 0.51664-0.73708 0-0.42365-0.32032-0.71641-0.78186-0.71641-0.3341 0-0.7853 0.11022-0.80597 0.8473zm3.496 0.34443c0-0.69575-0.21699-1.1917-0.82319-1.1917-0.46498 0-0.79908 0.34443-0.79908 0.82319 0 0.45465 0.30999 0.77497 0.75086 0.77497 0.23077 0 0.39954-0.082663 0.55798-0.2721-0.0034 0.59586-0.19632 0.92652-0.5442 0.92652-0.21355 0-0.36165-0.13433-0.40987-0.36854h-0.3031c0.05855 0.39954 0.32032 0.6372 0.6923 0.6372 0.35821 0 0.8783-0.19977 0.8783-1.3295zm-0.82663-0.92652c0.28243 0 0.49598 0.23421 0.49598 0.55109 0 0.29965-0.2101 0.5132-0.50631 0.5132-0.29276 0-0.47531-0.20321-0.47531-0.53042 0-0.30999 0.20666-0.53387 0.48565-0.53387z" aria-label="29"/><path d="m15.483 0.8473h0.3031c0.01378-0.22732 0.07233-0.58209 0.49254-0.58209 0.27554 0 0.4822 0.19633 0.4822 0.45809 0 0.19288-0.11366 0.35821-0.33065 0.4822l-0.31688 0.1791c-0.50976 0.28932-0.65786 0.52009-0.68542 1.0574h1.6257v-0.29965h-1.2847c0.031-0.19977 0.13433-0.33754 0.44087-0.50287l0.34443-0.18599c0.34099-0.18599 0.51664-0.43743 0.51664-0.73708 0-0.42365-0.32032-0.71641-0.78186-0.71641-0.3341 0-0.7853 0.11022-0.80597 0.8473zm3.0895 0.30999c0.25143-0.15155 0.3341-0.27554 0.3341-0.50631 0-0.38232-0.29965-0.65097-0.73364-0.65097-0.43054 0-0.73364 0.26866-0.73364 0.65097 0 0.22732 0.08266 0.35132 0.33065 0.50631-0.27899 0.13433-0.41676 0.33754-0.41676 0.6062 0 0.44776 0.33754 0.75775 0.81974 0.75775s0.81974-0.30999 0.81974-0.7543c0-0.2721-0.13777-0.47531-0.4202-0.60964zm-0.39954-0.88863c0.25832 0 0.42365 0.15155 0.42365 0.38921 0 0.22732-0.16877 0.37887-0.42365 0.37887s-0.42365-0.15155-0.42365-0.38232c0-0.23421 0.16877-0.38576 0.42365-0.38576zm0 1.023c0.3031 0 0.50976 0.19288 0.50976 0.47876 0 0.28932-0.20666 0.4822-0.51664 0.4822-0.29621 0-0.50287-0.19633-0.50287-0.4822s0.20666-0.47876 0.50976-0.47876z" aria-label="28"/><path d="m20.463 0.92652h0.3031c0.01378-0.22732 0.07233-0.58209 0.49254-0.58209 0.27554 0 0.4822 0.19633 0.4822 0.45809 0 0.19288-0.11366 0.35821-0.33065 0.4822l-0.31688 0.1791c-0.50976 0.28932-0.65786 0.52009-0.68542 1.0574h1.6257v-0.29965h-1.2847c0.031-0.19977 0.13433-0.33754 0.44087-0.50287l0.34443-0.18599c0.34098-0.18599 0.51664-0.43743 0.51664-0.73708 0-0.42365-0.32032-0.71641-0.78186-0.71641-0.3341 0-0.7853 0.11022-0.80597 0.8473zm3.5339-0.8473h-1.6326v0.29965h1.3192c-0.58209 0.83008-0.81974 1.3398-1.0023 2.1424h0.32376c0.13433-0.78186 0.44087-1.4535 0.99196-2.1871z" aria-label="27"/><path d="m25.467 0.8473h0.3031c0.01378-0.22732 0.07233-0.58209 0.49254-0.58209 0.27554 0 0.4822 0.19633 0.4822 0.45809 0 0.19288-0.11366 0.35821-0.33065 0.4822l-0.31688 0.1791c-0.50976 0.28932-0.65786 0.52009-0.68542 1.0574h1.6257v-0.29965h-1.2847c0.031-0.19977 0.13433-0.33754 0.44087-0.50287l0.34443-0.18599c0.34099-0.18599 0.51664-0.43743 0.51664-0.73708 0-0.42365-0.32032-0.71641-0.78186-0.71641-0.3341 0-0.7853 0.11022-0.80597 0.8473zm1.8909 0.4822c0 0.68886 0.2101 1.1917 0.81974 1.1917 0.46498 0 0.79908-0.34443 0.79908-0.82319 0-0.45465-0.30999-0.77497-0.74741-0.77497-0.2411 0-0.43054 0.092996-0.56142 0.2721 0.0034-0.59586 0.19632-0.92652 0.5442-0.92652 0.21355 0 0.36165 0.13433 0.40987 0.36854h0.3031c-0.058553-0.39954-0.32032-0.6372-0.6923-0.6372-0.35821 0-0.87485 0.19977-0.87485 1.3295zm0.83352-0.13777c0.29276 0 0.47531 0.20321 0.47531 0.53042 0 0.30654-0.20666 0.53042-0.48565 0.53042-0.28243 0-0.49598-0.23421-0.49598-0.54764 0-0.3031 0.20666-0.5132 0.50631-0.5132z" aria-label="26"/><path d="m30.459 0.8473h0.3031c0.01378-0.22732 0.07233-0.58209 0.49254-0.58209 0.27554 0 0.4822 0.19633 0.4822 0.45809 0 0.19288-0.11366 0.35821-0.33065 0.4822l-0.31688 0.1791c-0.50976 0.28932-0.65786 0.52009-0.68542 1.0574h1.6257v-0.29965h-1.2847c0.031-0.19977 0.13433-0.33754 0.44087-0.50287l0.34443-0.18599c0.34099-0.18599 0.51664-0.43743 0.51664-0.73708 0-0.42365-0.32032-0.71641-0.78186-0.71641-0.3341 0-0.7853 0.11022-0.80597 0.8473zm3.3823-0.8473h-1.2606l-0.18255 1.3295h0.27899c0.14122-0.16877 0.25832-0.22732 0.44776-0.22732 0.32721 0 0.53387 0.22388 0.53387 0.58553 0 0.35132-0.20321 0.56487-0.53387 0.56487-0.26521 0-0.42709-0.13433-0.49942-0.40987h-0.3031c0.031 0.15844 0.12055 0.67853 0.80941 0.67853 0.49254 0 0.83696-0.35821 0.83696-0.87485 0-0.4822-0.32032-0.81285-0.78874-0.81285-0.17222 0-0.30999 0.044776-0.4512 0.1481l0.09644-0.68197h1.0161z" aria-label="25"/><path d="m35.438 0.92652h0.3031c0.01378-0.22732 0.07233-0.58209 0.49253-0.58209 0.27554 0 0.4822 0.19633 0.4822 0.45809 0 0.19288-0.11366 0.35821-0.33065 0.4822l-0.31688 0.1791c-0.50976 0.28932-0.65786 0.52009-0.68542 1.0574h1.6257v-0.29965h-1.2847c0.031-0.19977 0.13433-0.33754 0.44087-0.50287l0.34443-0.18599c0.34099-0.18599 0.51664-0.43743 0.51664-0.73708 0-0.42365-0.32032-0.71641-0.78186-0.71641-0.3341 0-0.7853 0.11022-0.80597 0.8473zm2.8691 1.0092v0.58553h0.3031v-0.58553h0.36165v-0.2721h-0.36165v-1.5844h-0.22388l-1.1091 1.5362v0.32032zm0-0.2721h-0.76463l0.76463-1.0677z" aria-label="24"/><path d="m40.455 0.8473h0.3031c0.01378-0.22732 0.07233-0.58209 0.49254-0.58209 0.27554 0 0.4822 0.19633 0.4822 0.45809 0 0.19288-0.11366 0.35821-0.33065 0.4822l-0.31688 0.1791c-0.50976 0.28932-0.65786 0.52009-0.68542 1.0574h1.6257v-0.29965h-1.2847c0.031-0.19977 0.13433-0.33754 0.44087-0.50287l0.34443-0.18599c0.34099-0.18599 0.51664-0.43743 0.51664-0.73708 0-0.42365-0.32032-0.71641-0.78186-0.71641-0.3341 0-0.7853 0.11022-0.80597 0.8473zm2.6728-0.58209c0.26866 0 0.43054 0.15844 0.43054 0.41676 0 0.31688-0.19632 0.37543-0.59931 0.38232v0.25832h0.03789l0.12744-0.00344c0.3341 0 0.50631 0.15155 0.50631 0.44431 0 0.30654-0.18944 0.48909-0.50631 0.48909-0.33065 0-0.49254-0.16533-0.5132-0.52009h-0.3031c0.03789 0.53042 0.29621 0.78874 0.80597 0.78874 0.50287 0 0.82663-0.29965 0.82663-0.76119 0-0.30999-0.12055-0.4822-0.41332-0.58209 0.22732-0.089552 0.34099-0.26177 0.34099-0.50631 0-0.4202-0.27899-0.67164-0.74397-0.67164-0.49254 0-0.7543 0.26866-0.76463 0.78874h0.3031c0.0069-0.26521 0.07922-0.52353 0.46498-0.52353z" aria-label="23"/><path d="m45.438 0.92652h0.3031c0.01378-0.22732 0.07233-0.58209 0.49254-0.58209 0.27554 0 0.4822 0.19633 0.4822 0.45809 0 0.19288-0.11366 0.35821-0.33065 0.4822l-0.31688 0.1791c-0.50976 0.28932-0.65786 0.52009-0.68542 1.0574h1.6257v-0.29965h-1.2847c0.031-0.19977 0.13433-0.33754 0.44087-0.50287l0.34443-0.18599c0.34099-0.18599 0.51664-0.43743 0.51664-0.73708 0-0.42365-0.32032-0.71641-0.78186-0.71641-0.3341 0-0.7853 0.11022-0.80597 0.8473zm1.915 0h0.3031c0.01378-0.22732 0.07233-0.58209 0.49254-0.58209 0.27554 0 0.4822 0.19633 0.4822 0.45809 0 0.19288-0.11366 0.35821-0.33065 0.4822l-0.31688 0.1791c-0.50976 0.28932-0.65786 0.52009-0.68542 1.0574h1.6257v-0.29965h-1.2847c0.031-0.19977 0.13433-0.33754 0.44087-0.50287l0.34443-0.18599c0.34099-0.18599 0.51664-0.43743 0.51664-0.73708 0-0.42365-0.32032-0.71641-0.78186-0.71641-0.3341 0-0.7853 0.11022-0.80597 0.8473z" aria-label="22"/><path d="m50.712 0.92652h0.3031c0.01378-0.22732 0.07233-0.58209 0.49253-0.58209 0.27554 0 0.4822 0.19633 0.4822 0.45809 0 0.19288-0.11366 0.35821-0.33065 0.4822l-0.31688 0.1791c-0.50976 0.28932-0.65786 0.52009-0.68542 1.0574h1.6257v-0.29965h-1.2847c0.031-0.19977 0.13433-0.33754 0.44087-0.50287l0.34443-0.18599c0.34099-0.18599 0.51664-0.43743 0.51664-0.73708 0-0.42365-0.32032-0.71641-0.78186-0.71641-0.3341 0-0.7853 0.11022-0.80597 0.8473zm2.6349-0.14466v1.7394h0.3031v-2.442h-0.19977c-0.10677 0.37543-0.17566 0.42709-0.64408 0.48565v0.21699z" aria-label="21"/><path d="m55.429 0.8473h0.3031c0.01378-0.22732 0.07233-0.58209 0.49254-0.58209 0.27554 0 0.4822 0.19633 0.4822 0.45809 0 0.19288-0.11366 0.35821-0.33065 0.4822l-0.31688 0.1791c-0.50976 0.28932-0.65786 0.52009-0.68542 1.0574h1.6257v-0.29965h-1.2847c0.031-0.19977 0.13433-0.33754 0.44087-0.50287l0.34443-0.18599c0.34099-0.18599 0.51664-0.43743 0.51664-0.73708 0-0.42365-0.32032-0.71641-0.78186-0.71641-0.3341 0-0.7853 0.11022-0.80597 0.8473zm1.8909 0.41332c0 0.82319 0.27554 1.2606 0.79908 1.2606 0.51664 0 0.79908-0.43743 0.79908-1.2399 0-0.70953-0.19288-1.2813-0.79908-1.2813-0.34098 0-0.79908 0.18944-0.79908 1.2606zm0.79908-0.99196c0.32721 0 0.48909 0.33065 0.48909 0.98507 0 0.6923-0.15844 1.0161-0.49598 1.0161-0.32032 0-0.4822-0.33754-0.4822-1.0057 0-0.66819 0.16188-0.9954 0.48909-0.9954z" aria-label="20"/><path d="m61.02 0.70264v1.7394h0.3031v-2.442h-0.19977c-0.10677 0.37543-0.17566 0.42709-0.64408 0.48565v0.21699zm2.7761 0.48909c0-0.69575-0.21699-1.1917-0.82319-1.1917-0.46498 0-0.79908 0.34443-0.79908 0.82319 0 0.45465 0.30999 0.77497 0.75086 0.77497 0.23077 0 0.39954-0.082663 0.55798-0.2721-0.0034 0.59586-0.19632 0.92652-0.5442 0.92652-0.21355 0-0.36165-0.13433-0.40987-0.36854h-0.3031c0.05855 0.39954 0.32032 0.6372 0.6923 0.6372 0.35821 0 0.8783-0.19977 0.8783-1.3295zm-0.82663-0.92652c0.28243 0 0.49598 0.23421 0.49598 0.55109 0 0.29965-0.2101 0.5132-0.50631 0.5132-0.29277 0-0.47531-0.20321-0.47531-0.53042 0-0.30999 0.20666-0.53387 0.48565-0.53387z" aria-label="19"/><path d="m66.005 0.70264v1.7394h0.3031v-2.442h-0.19977c-0.10677 0.37543-0.17566 0.42709-0.64408 0.48565v0.21699zm2.3697 0.45465c0.25143-0.15155 0.3341-0.27554 0.3341-0.50631 0-0.38232-0.29965-0.65097-0.73364-0.65097-0.43054 0-0.73364 0.26866-0.73364 0.65097 0 0.22732 0.08266 0.35132 0.33065 0.50631-0.27899 0.13433-0.41676 0.33754-0.41676 0.6062 0 0.44776 0.33754 0.75775 0.81974 0.75775s0.81974-0.30999 0.81974-0.7543c0-0.2721-0.13777-0.47531-0.4202-0.60964zm-0.39954-0.88863c0.25832 0 0.42365 0.15155 0.42365 0.38921 0 0.22732-0.16877 0.37887-0.42365 0.37887-0.25488 0-0.42365-0.15155-0.42365-0.38232 0-0.23421 0.16877-0.38576 0.42365-0.38576zm0 1.023c0.3031 0 0.50976 0.19288 0.50976 0.47876 0 0.28932-0.20666 0.4822-0.51664 0.4822-0.29621 0-0.50287-0.19633-0.50287-0.4822s0.20666-0.47876 0.50976-0.47876z" aria-label="18"/><path d="m70.985 0.78186v1.7394h0.3031v-2.442h-0.19977c-0.10677 0.37543-0.17566 0.42709-0.64408 0.48565v0.21699zm2.814-0.70264h-1.6326v0.29965h1.3192c-0.58209 0.83008-0.81974 1.3398-1.0023 2.1424h0.32376c0.13433-0.78186 0.44087-1.4535 0.99196-2.1871z" aria-label="17"/><path d="m75.989 0.70264v1.7394h0.3031v-2.442h-0.19977c-0.10677 0.37543-0.17566 0.42709-0.64408 0.48565v0.21699zm1.1711 0.62686c0 0.68886 0.2101 1.1917 0.81974 1.1917 0.46498 0 0.79908-0.34443 0.79908-0.82319 0-0.45465-0.30999-0.77497-0.74741-0.77497-0.2411 0-0.43054 0.092996-0.56142 0.2721 0.0034-0.59586 0.19632-0.92652 0.5442-0.92652 0.21355 0 0.36165 0.13433 0.40987 0.36854h0.3031c-0.058553-0.39954-0.32032-0.6372-0.6923-0.6372-0.35821 0-0.87485 0.19977-0.87485 1.3295zm0.83352-0.13777c0.29276 0 0.47531 0.20321 0.47531 0.53042 0 0.30654-0.20666 0.53042-0.48565 0.53042-0.28243 0-0.49598-0.23421-0.49598-0.54764 0-0.3031 0.20666-0.5132 0.50631-0.5132z" aria-label="16"/><path d="m80.981 0.70264v1.7394h0.3031v-2.442h-0.19977c-0.10677 0.37543-0.17566 0.42709-0.64408 0.48565v0.21699zm2.6624-0.70264h-1.2606l-0.18255 1.3295h0.27899c0.14122-0.16877 0.25832-0.22732 0.44776-0.22732 0.32721 0 0.53387 0.22388 0.53387 0.58553 0 0.35132-0.20321 0.56487-0.53387 0.56487-0.26521 0-0.42709-0.13433-0.49942-0.40987h-0.3031c0.031 0.15844 0.12055 0.67853 0.80941 0.67853 0.49254 0 0.83696-0.35821 0.83696-0.87485 0-0.4822-0.32032-0.81285-0.78874-0.81285-0.17222 0-0.30999 0.044776-0.4512 0.1481l0.09644-0.68197h1.0161z" aria-label="15"/><path d="m85.961 0.78186v1.7394h0.3031v-2.442h-0.19977c-0.10677 0.37543-0.17566 0.42709-0.64408 0.48565v0.21699zm2.1492 1.1538v0.58553h0.3031v-0.58553h0.36165v-0.2721h-0.36165v-1.5844h-0.22388l-1.1091 1.5362v0.32032zm0-0.2721h-0.76463l0.76463-1.0677z" aria-label="14"/><path d="m90.977 0.70264v1.7394h0.3031v-2.442h-0.19977c-0.10677 0.37543-0.17566 0.42709-0.64408 0.48565v0.21699zm1.9529-0.43743c0.26866 0 0.43054 0.15844 0.43054 0.41676 0 0.31688-0.19633 0.37543-0.59931 0.38232v0.25832h0.03789l0.12744-0.00344c0.3341 0 0.50631 0.15155 0.50631 0.44431 0 0.30654-0.18944 0.48909-0.50631 0.48909-0.33065 0-0.49254-0.16533-0.5132-0.52009h-0.3031c0.03789 0.53042 0.29621 0.78874 0.80597 0.78874 0.50287 0 0.82663-0.29965 0.82663-0.76119 0-0.30999-0.12055-0.4822-0.41332-0.58209 0.22732-0.089552 0.34099-0.26177 0.34099-0.50631 0-0.4202-0.27899-0.67164-0.74397-0.67164-0.49254 0-0.7543 0.26866-0.76464 0.78874h0.3031c0.0069-0.26521 0.07922-0.52353 0.46498-0.52353z" aria-label="13"/><path d="m95.96 0.78186v1.7394h0.3031v-2.442h-0.19977c-0.10677 0.37543-0.17566 0.42709-0.64408 0.48565v0.21699zm1.1952 0.14466h0.3031c0.01378-0.22732 0.07233-0.58209 0.49253-0.58209 0.27554 0 0.4822 0.19633 0.4822 0.45809 0 0.19288-0.11366 0.35821-0.33065 0.4822l-0.31688 0.1791c-0.50976 0.28932-0.65786 0.52009-0.68542 1.0574h1.6257v-0.29965h-1.2847c0.031-0.19977 0.13433-0.33754 0.44087-0.50287l0.34443-0.18599c0.34099-0.18599 0.51664-0.43743 0.51664-0.73708 0-0.42365-0.32032-0.71641-0.78186-0.71641-0.3341 0-0.7853 0.11022-0.80597 0.8473z" aria-label="12"/><path d="m101.23 0.78186v1.7394h0.3031v-2.442h-0.19977c-0.10677 0.37543-0.17566 0.42709-0.64408 0.48565v0.21699zm1.915 0v1.7394h0.3031v-2.442h-0.19977c-0.10677 0.37543-0.17566 0.42709-0.64408 0.48565v0.21699z" aria-label="11"/><path d="m105.95 0.70264v1.7394h0.3031v-2.442h-0.19977c-0.10677 0.37543-0.17566 0.42709-0.64408 0.48565v0.21699zm1.1711 0.55798c0 0.82319 0.27555 1.2606 0.79908 1.2606 0.51664 0 0.79908-0.43743 0.79908-1.2399 0-0.70953-0.19288-1.2813-0.79908-1.2813-0.34099 0-0.79908 0.18944-0.79908 1.2606zm0.79908-0.99196c0.32721 0 0.48909 0.33065 0.48909 0.98507 0 0.6923-0.15844 1.0161-0.49598 1.0161-0.32032 0-0.4822-0.33754-0.4822-1.0057 0-0.66819 0.16188-0.9954 0.48909-0.9954z" aria-label="10"/><path d="m112.87 1.1917c0-0.69575-0.21699-1.1917-0.82319-1.1917-0.46498 0-0.79908 0.34443-0.79908 0.82319 0 0.45465 0.30999 0.77497 0.75086 0.77497 0.23077 0 0.39954-0.082663 0.55798-0.2721-3e-3 0.59586-0.19633 0.92652-0.5442 0.92652-0.21355 0-0.36166-0.13433-0.40988-0.36854h-0.30309c0.0586 0.39954 0.32032 0.6372 0.6923 0.6372 0.35821 0 0.8783-0.19977 0.8783-1.3295zm-0.82664-0.92652c0.28244 0 0.49598 0.23421 0.49598 0.55109 0 0.29965-0.2101 0.5132-0.50631 0.5132-0.29276 0-0.47531-0.20321-0.47531-0.53042 0-0.30999 0.20666-0.53387 0.48564-0.53387z" aria-label="9"/><path d="m117.45 1.1573c0.25143-0.15155 0.33409-0.27554 0.33409-0.50631 0-0.38232-0.29965-0.65097-0.73363-0.65097-0.43054 0-0.73364 0.26866-0.73364 0.65097 0 0.22732 0.0827 0.35132 0.33066 0.50631-0.27899 0.13433-0.41676 0.33754-0.41676 0.6062 0 0.44776 0.33754 0.75775 0.81974 0.75775s0.81974-0.30999 0.81974-0.7543c0-0.2721-0.13777-0.47531-0.4202-0.60964zm-0.39954-0.88863c0.25832 0 0.42365 0.15155 0.42365 0.38921 0 0.22732-0.16877 0.37887-0.42365 0.37887s-0.42365-0.15155-0.42365-0.38232c0-0.23421 0.16877-0.38576 0.42365-0.38576zm0 1.023c0.3031 0 0.50976 0.19288 0.50976 0.47876 0 0.28932-0.20666 0.4822-0.51665 0.4822-0.29621 0-0.50287-0.19633-0.50287-0.4822s0.20666-0.47876 0.50976-0.47876z" aria-label="8"/><path d="m122.86 0.07922h-1.6326v0.29965h1.3192c-0.58209 0.83008-0.81975 1.3398-1.0023 2.1424h0.32376c0.13433-0.78186 0.44087-1.4535 0.99196-2.1871z" aria-label="7"/><path d="m126.22 1.3295c0 0.68886 0.2101 1.1917 0.81974 1.1917 0.46498 0 0.79908-0.34443 0.79908-0.82319 0-0.45465-0.30999-0.77497-0.74741-0.77497-0.2411 0-0.43054 0.092996-0.56142 0.2721 3e-3 -0.59586 0.19632-0.92652 0.54419-0.92652 0.21355 0 0.36166 0.13433 0.40988 0.36854h0.30309c-0.0585-0.39954-0.32032-0.6372-0.6923-0.6372-0.35821 0-0.87485 0.19977-0.87485 1.3295zm0.83352-0.13777c0.29276 0 0.47531 0.20321 0.47531 0.53042 0 0.30654-0.20666 0.53042-0.48564 0.53042-0.28244 0-0.49598-0.23421-0.49598-0.54764 0-0.3031 0.20665-0.5132 0.50631-0.5132z" aria-label="6"/><path d="m132.72-1.3516e-6h-1.2606l-0.18255 1.3295h0.27899c0.14121-0.16877 0.25832-0.22732 0.44776-0.22732 0.3272 0 0.53386 0.22388 0.53386 0.58553 0 0.35132-0.20321 0.56487-0.53386 0.56487-0.26522 0-0.4271-0.13433-0.49943-0.40987h-0.3031c0.031 0.15844 0.12055 0.67853 0.80941 0.67853 0.49254 0 0.83697-0.35821 0.83697-0.87485 0-0.4822-0.32032-0.81285-0.78875-0.81285-0.17221 0-0.30998 0.044776-0.4512 0.1481l0.0964-0.68197h1.0161z" aria-label="5"/><path d="m137.2 1.9357v0.58553h0.3031v-0.58553h0.36165v-0.2721h-0.36165v-1.5844h-0.22388l-1.1091 1.5362v0.32032zm0-0.2721h-0.76463l0.76463-1.0677z" aria-label="4"/><path d="m142.01 0.26521c0.26865 0 0.43054 0.15844 0.43054 0.41676 0 0.31688-0.19633 0.37543-0.59931 0.38232v0.25832h0.0379l0.12744-0.00344c0.3341 0 0.50632 0.15155 0.50632 0.44431 0 0.30654-0.18944 0.48909-0.50632 0.48909-0.33065 0-0.49253-0.16533-0.5132-0.52009h-0.3031c0.0379 0.53042 0.29621 0.78874 0.80597 0.78874 0.50287 0 0.82663-0.29965 0.82663-0.76119 0-0.30999-0.12055-0.4822-0.41331-0.58209 0.22732-0.089552 0.34098-0.26177 0.34098-0.50631 0-0.4202-0.27899-0.67164-0.74397-0.67164-0.49253 0-0.7543 0.26866-0.76463 0.78874h0.3031c7e-3 -0.26521 0.0792-0.52353 0.46498-0.52353z" aria-label="3"/><path d="m146.23 0.92652h0.30309c0.0138-0.22732 0.0723-0.58209 0.49254-0.58209 0.27554 0 0.4822 0.19633 0.4822 0.45809 0 0.19288-0.11366 0.35821-0.33065 0.4822l-0.31688 0.1791c-0.50975 0.28932-0.65786 0.52009-0.68541 1.0574h1.6257v-0.29965h-1.2847c0.031-0.19977 0.13433-0.33754 0.44087-0.50287l0.34443-0.18599c0.34099-0.18599 0.51665-0.43743 0.51665-0.73708 0-0.42365-0.32032-0.71641-0.78186-0.71641-0.33409 0-0.7853 0.11022-0.80596 0.8473z" aria-label="2"/><path d="m152.11 0.78186v1.7394h0.3031v-2.442h-0.19977c-0.10677 0.37543-0.17566 0.42709-0.64408 0.48565v0.21699z" aria-label="1"/><path d="m156.19 1.2606c0 0.82319 0.27555 1.2606 0.79908 1.2606 0.51664 0 0.79908-0.43743 0.79908-1.2399 0-0.70953-0.19288-1.2813-0.79908-1.2813-0.34099 0-0.79908 0.18944-0.79908 1.2606zm0.79908-0.99196c0.32721 0 0.48909 0.33065 0.48909 0.98507 0 0.6923-0.15844 1.0161-0.49598 1.0161-0.32032 0-0.4822-0.33754-0.4822-1.0057 0-0.66819 0.16188-0.9954 0.48909-0.9954z" aria-label="0"/></g><g transform="matrix(.59091 0 0 .59091 -6.0279 9.1332)" font-family="FreeSans" font-size="3.4443px" stroke-width="1.2377"><text x="10.889782" y="30.443134" style="line-height:normal;text-decoration-color:#000000" xml:space="preserve"><tspan x="10.889782" y="30.443134" fill="#666666" stroke-width="1.2377">31</tspan></text><text x="15.60619" y="30.443134" style="line-height:normal;text-decoration-color:#000000" xml:space="preserve"><tspan x="15.60619" y="30.443134" fill="#666666" stroke-width="1.2377">30</tspan></text><text x="20.591253" y="30.443134" style="line-height:normal;text-decoration-color:#000000" xml:space="preserve"><tspan x="20.591253" y="30.443134" fill="#666666" stroke-width="1.2377">29</tspan></text><text x="25.576319" y="30.443134" style="line-height:normal;text-decoration-color:#000000" xml:space="preserve"><tspan x="25.576319" y="30.443134" fill="#666666" stroke-width="1.2377">28</tspan></text><text x="30.556217" y="30.522354" style="line-height:normal;text-decoration-color:#000000" xml:space="preserve"><tspan x="30.556217" y="30.522354" fill="#666666" stroke-width="1.2377">27</tspan></text><text x="35.560226" y="30.443134" style="line-height:normal;text-decoration-color:#000000" xml:space="preserve"><tspan x="35.560226" y="30.443134" fill="#666666" stroke-width="1.2377">26</tspan></text><text x="40.552177" y="30.443134" style="line-height:normal;text-decoration-color:#000000" xml:space="preserve"><tspan x="40.552177" y="30.443134" fill="#666666" stroke-width="1.2377">25</tspan></text><text x="45.532074" y="30.522354" style="line-height:normal;text-decoration-color:#000000" xml:space="preserve"><tspan x="45.532074" y="30.522354" fill="#666666" stroke-width="1.2377">24</tspan></text><text x="50.548138" y="30.443134" style="line-height:normal;text-decoration-color:#000000" xml:space="preserve"><tspan x="50.548138" y="30.443134" fill="#666666" stroke-width="1.2377">23</tspan></text><text x="55.531483" y="30.522354" style="line-height:normal;text-decoration-color:#000000" xml:space="preserve"><tspan x="55.531483" y="30.522354" fill="#666666" stroke-width="1.2377">22</tspan></text><text x="60.80587" y="30.522354" style="line-height:normal;text-decoration-color:#000000" xml:space="preserve"><tspan x="60.80587" y="30.522354" fill="#666666" stroke-width="1.2377">21</tspan></text><text x="65.522278" y="30.443134" style="line-height:normal;text-decoration-color:#000000" xml:space="preserve"><tspan x="65.522278" y="30.443134" fill="#666666" stroke-width="1.2377">20</tspan></text><text x="70.393677" y="30.443134" style="line-height:normal;text-decoration-color:#000000" xml:space="preserve"><tspan x="70.393677" y="30.443134" fill="#666666" stroke-width="1.2377">19</tspan></text><text x="75.378746" y="30.443134" style="line-height:normal;text-decoration-color:#000000" xml:space="preserve"><tspan x="75.378746" y="30.443134" fill="#666666" stroke-width="1.2377">18</tspan></text><text x="80.358643" y="30.522354" style="line-height:normal;text-decoration-color:#000000" xml:space="preserve"><tspan x="80.358643" y="30.522354" fill="#666666" stroke-width="1.2377">17</tspan></text><text x="85.362648" y="30.443134" style="line-height:normal;text-decoration-color:#000000" xml:space="preserve"><tspan x="85.362648" y="30.443134" fill="#666666" stroke-width="1.2377">16</tspan></text><text x="90.354599" y="30.443134" style="line-height:normal;text-decoration-color:#000000" xml:space="preserve"><tspan x="90.354599" y="30.443134" fill="#666666" stroke-width="1.2377">15</tspan></text><text x="95.334503" y="30.522354" style="line-height:normal;text-decoration-color:#000000" xml:space="preserve"><tspan x="95.334503" y="30.522354" fill="#666666" stroke-width="1.2377">14</tspan></text><text x="100.35056" y="30.443134" style="line-height:normal;text-decoration-color:#000000" xml:space="preserve"><tspan x="100.35056" y="30.443134" fill="#666666" stroke-width="1.2377">13</tspan></text><text x="105.33391" y="30.522354" style="line-height:normal;text-decoration-color:#000000" xml:space="preserve"><tspan x="105.33391" y="30.522354" fill="#666666" stroke-width="1.2377">12</tspan></text><text x="110.60829" y="30.522354" style="line-height:normal;text-decoration-color:#000000" xml:space="preserve"><tspan x="110.60829" y="30.522354" fill="#666666" stroke-width="1.2377">11</tspan></text><text x="115.3247" y="30.443134" style="line-height:normal;text-decoration-color:#000000" xml:space="preserve"><tspan x="115.3247" y="30.443134" fill="#666666" stroke-width="1.2377">10</tspan></text><text x="121.38095" y="30.443134" style="line-height:normal;text-decoration-color:#000000" xml:space="preserve"><tspan x="121.38095" y="30.443134" fill="#666666" stroke-width="1.2377">9</tspan></text><text x="126.36774" y="30.443134" style="line-height:normal;text-decoration-color:#000000" xml:space="preserve"><tspan x="126.36774" y="30.443134" fill="#666666" stroke-width="1.2377">8</tspan></text><text x="131.33214" y="30.522354" style="line-height:normal;text-decoration-color:#000000" xml:space="preserve"><tspan x="131.33214" y="30.522354" fill="#666666" stroke-width="1.2377">7</tspan></text><text x="136.34131" y="30.443134" style="line-height:normal;text-decoration-color:#000000" xml:space="preserve"><tspan x="136.34131" y="30.443134" fill="#666666" stroke-width="1.2377">6</tspan></text><text x="141.34705" y="30.443134" style="line-height:normal;text-decoration-color:#000000" xml:space="preserve"><tspan x="141.34705" y="30.443134" fill="#666666" stroke-width="1.2377">5</tspan></text><text x="146.33899" y="30.522354" style="line-height:normal;text-decoration-color:#000000" xml:space="preserve"><tspan x="146.33899" y="30.522354" fill="#666666" stroke-width="1.2377">4</tspan></text><text x="151.34816" y="30.443134" style="line-height:normal;text-decoration-color:#000000" xml:space="preserve"><tspan x="151.34816" y="30.443134" fill="#666666" stroke-width="1.2377">3</tspan></text><text x="156.32806" y="30.522354" style="line-height:normal;text-decoration-color:#000000" xml:space="preserve"><tspan x="156.32806" y="30.522354" fill="#666666" stroke-width="1.2377">2</tspan></text><text x="161.48535" y="30.522354" style="line-height:normal;text-decoration-color:#000000" xml:space="preserve"><tspan x="161.48535" y="30.522354" fill="#666666" stroke-width="1.2377">1</tspan></text><text x="166.30336" y="30.443134" style="line-height:normal;text-decoration-color:#000000" xml:space="preserve"><tspan x="166.30336" y="30.443134" fill="#666666" stroke-width="1.2377">0</tspan></text></g></g><path transform="scale(.98437 1.0159)" d="m61.897 29.166q-0.23743 0-0.35766 0.23438-0.11871 0.23286-0.11871 0.70163 0 0.46725 0.11871 0.70163 0.12024 0.23286 0.35766 0.23286 0.23895 0 0.35766-0.23286 0.12024-0.23438 0.12024-0.70163 0-0.46877-0.12024-0.70163-0.11871-0.23438-0.35766-0.23438zm0-0.24352q0.38202 0 0.58292 0.30287 0.20242 0.30135 0.20242 0.87666 0 0.57378-0.20242 0.87666-0.2009 0.30135-0.58292 0.30135-0.38202 0-0.58444-0.30135-0.2009-0.30287-0.2009-0.87666 0-0.57531 0.2009-0.87666 0.20242-0.30287 0.58444-0.30287zm2.9739 0.24352q-0.23743 0-0.35766 0.23438-0.11871 0.23286-0.11871 0.70163 0 0.46725 0.11871 0.70163 0.12024 0.23286 0.35766 0.23286 0.23895 0 0.35766-0.23286 0.12024-0.23438 0.12024-0.70163 0-0.46877-0.12024-0.70163-0.11871-0.23438-0.35766-0.23438zm0-0.24352q0.38202 0 0.58292 0.30287 0.20242 0.30135 0.20242 0.87666 0 0.57378-0.20242 0.87666-0.2009 0.30135-0.58292 0.30135t-0.58444-0.30135q-0.2009-0.30287-0.2009-0.87666 0-0.57531 0.2009-0.87666 0.20242-0.30287 0.58444-0.30287zm2.9739 0.24352q-0.23743 0-0.35766 0.23438-0.11871 0.23286-0.11871 0.70163 0 0.46725 0.11871 0.70163 0.12024 0.23286 0.35766 0.23286 0.23895 0 0.35766-0.23286 0.12024-0.23438 0.12024-0.70163 0-0.46877-0.12024-0.70163-0.11871-0.23438-0.35766-0.23438zm0-0.24352q0.38202 0 0.58292 0.30287 0.20242 0.30135 0.20242 0.87666 0 0.57378-0.20242 0.87666-0.2009 0.30135-0.58292 0.30135t-0.58444-0.30135q-0.2009-0.30287-0.2009-0.87666 0-0.57531 0.2009-0.87666 0.20242-0.30287 0.58444-0.30287zm2.9739 0.24352q-0.23743 0-0.35766 0.23438-0.11871 0.23286-0.11871 0.70163 0 0.46725 0.11871 0.70163 0.12024 0.23286 0.35766 0.23286 0.23895 0 0.35766-0.23286 0.12024-0.23438 0.12024-0.70163 0-0.46877-0.12024-0.70163-0.11871-0.23438-0.35766-0.23438zm0-0.24352q0.38202 0 0.58292 0.30287 0.20242 0.30135 0.20242 0.87666 0 0.57378-0.20242 0.87666-0.2009 0.30135-0.58292 0.30135t-0.58444-0.30135q-0.2009-0.30287-0.2009-0.87666 0-0.57531 0.2009-0.87666 0.20242-0.30287 0.58444-0.30287zm2.9739 0.24352q-0.23743 0-0.35766 0.23438-0.11871 0.23286-0.11871 0.70163 0 0.46725 0.11871 0.70163 0.12024 0.23286 0.35766 0.23286 0.23895 0 0.35766-0.23286 0.12024-0.23438 0.12024-0.70163 0-0.46877-0.12024-0.70163-0.11871-0.23438-0.35766-0.23438zm0-0.24352q0.38202 0 0.58292 0.30287 0.20242 0.30135 0.20242 0.87666 0 0.57378-0.20242 0.87666-0.2009 0.30135-0.58292 0.30135t-0.58444-0.30135q-0.2009-0.30287-0.2009-0.87666 0-0.57531 0.2009-0.87666 0.20242-0.30287 0.58444-0.30287zm2.9739 0.24352q-0.23743 0-0.35766 0.23438-0.11871 0.23286-0.11871 0.70163 0 0.46725 0.11871 0.70163 0.12024 0.23286 0.35766 0.23286 0.23895 0 0.35766-0.23286 0.12024-0.23438 0.12024-0.70163 0-0.46877-0.12024-0.70163-0.11871-0.23438-0.35766-0.23438zm0-0.24352q0.38202 0 0.58292 0.30287 0.20242 0.30135 0.20242 0.87666 0 0.57378-0.20242 0.87666-0.2009 0.30135-0.58292 0.30135t-0.58444-0.30135q-0.2009-0.30287-0.2009-0.87666 0-0.57531 0.2009-0.87666 0.20242-0.30287 0.58444-0.30287zm2.9739 0.24352q-0.23743 0-0.35766 0.23438-0.11871 0.23286-0.11871 0.70163 0 0.46725 0.11871 0.70163 0.12024 0.23286 0.35766 0.23286 0.23895 0 0.35766-0.23286 0.12024-0.23438 0.12024-0.70163 0-0.46877-0.12024-0.70163-0.11871-0.23438-0.35766-0.23438zm0-0.24352q0.38202 0 0.58292 0.30287 0.20242 0.30135 0.20242 0.87666 0 0.57378-0.20242 0.87666-0.2009 0.30135-0.58292 0.30135t-0.58444-0.30135q-0.2009-0.30287-0.2009-0.87666 0-0.57531 0.2009-0.87666 0.20242-0.30287 0.58444-0.30287zm2.9739 0.24352q-0.23743 0-0.35766 0.23438-0.11871 0.23286-0.11871 0.70163 0 0.46725 0.11871 0.70163 0.12024 0.23286 0.35766 0.23286 0.23895 0 0.35766-0.23286 0.12024-0.23438 0.12024-0.70163 0-0.46877-0.12024-0.70163-0.11871-0.23438-0.35766-0.23438zm0-0.24352q0.38202 0 0.58292 0.30287 0.20242 0.30135 0.20242 0.87666 0 0.57378-0.20242 0.87666-0.2009 0.30135-0.58292 0.30135-0.38202 0-0.58444-0.30135-0.2009-0.30287-0.2009-0.87666 0-0.57531 0.2009-0.87666 0.20242-0.30287 0.58444-0.30287zm2.9739 0.24352q-0.23743 0-0.35766 0.23438-0.11871 0.23286-0.11871 0.70163 0 0.46725 0.11871 0.70163 0.12024 0.23286 0.35766 0.23286 0.23895 0 0.35766-0.23286 0.12024-0.23438 0.12024-0.70163 0-0.46877-0.12024-0.70163-0.11871-0.23438-0.35766-0.23438zm0-0.24352q0.38202 0 0.58292 0.30287 0.20242 0.30135 0.20242 0.87666 0 0.57378-0.20242 0.87666-0.2009 0.30135-0.58292 0.30135-0.38202 0-0.58444-0.30135-0.2009-0.30287-0.2009-0.87666 0-0.57531 0.2009-0.87666 0.20242-0.30287 0.58444-0.30287zm2.9739 0.24352q-0.23743 0-0.35766 0.23438-0.11871 0.23286-0.11871 0.70163 0 0.46725 0.11871 0.70163 0.12024 0.23286 0.35766 0.23286 0.23895 0 0.35766-0.23286 0.12024-0.23438 0.12024-0.70163 0-0.46877-0.12024-0.70163-0.11871-0.23438-0.35766-0.23438zm0-0.24352q0.38202 0 0.58292 0.30287 0.20242 0.30135 0.20242 0.87666 0 0.57378-0.20242 0.87666-0.2009 0.30135-0.58292 0.30135-0.38202 0-0.58444-0.30135-0.2009-0.30287-0.2009-0.87666 0-0.57531 0.2009-0.87666 0.20242-0.30287 0.58444-0.30287zm2.9739 0.24352q-0.23743 0-0.35766 0.23438-0.11871 0.23286-0.11871 0.70163 0 0.46725 0.11871 0.70163 0.12024 0.23286 0.35766 0.23286 0.23895 0 0.35766-0.23286 0.12024-0.23438 0.12024-0.70163 0-0.46877-0.12024-0.70163-0.11871-0.23438-0.35766-0.23438zm0-0.24352q0.38202 0 0.58292 0.30287 0.20242 0.30135 0.20242 0.87666 0 0.57378-0.20242 0.87666-0.2009 0.30135-0.58292 0.30135t-0.58444-0.30135q-0.2009-0.30287-0.2009-0.87666 0-0.57531 0.2009-0.87666 0.20242-0.30287 0.58444-0.30287zm2.9739 0.24352q-0.23743 0-0.35766 0.23438-0.11871 0.23286-0.11871 0.70163 0 0.46725 0.11871 0.70163 0.12024 0.23286 0.35766 0.23286 0.23895 0 0.35766-0.23286 0.12024-0.23438 0.12024-0.70163 0-0.46877-0.12024-0.70163-0.11871-0.23438-0.35766-0.23438zm0-0.24352q0.38202 0 0.58292 0.30287 0.20242 0.30135 0.20242 0.87666 0 0.57378-0.20242 0.87666-0.2009 0.30135-0.58292 0.30135t-0.58444-0.30135q-0.2009-0.30287-0.2009-0.87666 0-0.57531 0.2009-0.87666 0.20242-0.30287 0.58444-0.30287z" fill="#1f1f1f" stroke-dashoffset="46.29" stroke-width=".79375" aria-label="0 0 0 0 0 0 0 0 0 0 0 0"/></svg>
