<svg width="168.51mm" height="113.02mm" version="1.1" viewBox="0 0 168.51 113.02" xmlns="http://www.w3.org/2000/svg" xmlns:xlink="http://www.w3.org/1999/xlink"><defs><marker id="a" overflow="visible" markerHeight="1" markerWidth="1" orient="auto-start-reverse" preserveAspectRatio="xMidYMid" refX="3" viewBox="0 0 1 1"><path transform="scale(.5)" d="m5.77 0-8.65 5v-10z" fill="context-stroke" fill-rule="evenodd" stroke="context-stroke" stroke-width="1pt"/></marker><marker id="b" overflow="visible" markerHeight="1" markerWidth="1" orient="auto-start-reverse" preserveAspectRatio="xMidYMid" refX="3" viewBox="0 0 1 1"><path transform="scale(.5)" d="m5.77 0-8.65 5v-10z" fill="context-stroke" fill-rule="evenodd" stroke="context-stroke" stroke-width="1pt"/></marker><marker id="f" overflow="visible" markerHeight="1" markerWidth="1" orient="auto-start-reverse" preserveAspectRatio="xMidYMid" refX="3" viewBox="0 0 1 1"><path transform="scale(.5)" d="m5.77 0-8.65 5v-10z" fill="context-stroke" fill-rule="evenodd" stroke="context-stroke" stroke-width="1pt"/></marker><marker id="e" overflow="visible" markerHeight="1" markerWidth="1" orient="auto-start-reverse" preserveAspectRatio="xMidYMid" refX="3" viewBox="0 0 1 1"><path transform="scale(.5)" d="m5.77 0-8.65 5v-10z" fill="context-stroke" fill-rule="evenodd" stroke="context-stroke" stroke-width="1pt"/></marker><pattern id="c" xlink:href="#d" patternTransform="matrix(0 .2 -.2 0 -1.472e-7 -1.2154e-5)" preserveAspectRatio="xMidYMid"/><pattern id="d" xlink:href="#i" patternTransform="matrix(0 .2 -.2 0 -2.7268e-7 -1.1494e-5)" preserveAspectRatio="xMidYMid"/><pattern id="i" width="2" height="10" fill="#8acb96" patternTransform="translate(0) scale(2)" patternUnits="userSpaceOnUse" preserveAspectRatio="xMidYMid"><rect y="-.5" width="1" height="11"/></pattern><marker id="h" overflow="visible" markerHeight="1" markerWidth="1" orient="auto-start-reverse" preserveAspectRatio="xMidYMid" refX="3" viewBox="0 0 1 1"><path transform="scale(.5)" d="m5.77 0-8.65 5v-10z" fill="context-stroke" fill-rule="evenodd" stroke="context-stroke" stroke-width="1pt"/></marker><marker id="g" overflow="visible" markerHeight="1" markerWidth="1" orient="auto-start-reverse" preserveAspectRatio="xMidYMid" refX="3" viewBox="0 0 1 1"><path transform="scale(.5)" d="m5.77 0-8.65 5v-10z" fill="context-stroke" fill-rule="evenodd" stroke="context-stroke" stroke-width="1pt"/></marker></defs><path d="m117.54 43.723v9" fill="none" marker-end="url(#a)" stroke="#000" stroke-width=".81382"/><text x="72.65831" y="58.698513" fill="#000000" fill-opacity=".51212" font-family="'Adwaita Mono'" font-size="3.0794px" stroke-dashoffset="46.29" stroke-width=".26458" style="line-height:normal;text-decoration-color:#000000" xml:space="preserve"><tspan x="72.65831" y="58.698513" fill="#000000" stroke-width=".26458">32 bits </tspan></text><g fill="none"><path d="m117.62 66.643 0.19257 34.352" marker-end="url(#a)" stroke="#000" stroke-width=".8"/><g stroke="#b3b3b3" stroke-linecap="round" stroke-miterlimit="1" stroke-width=".21374"><path d="m3.5125 25.336v5.711"/><path d="m0.666 25.336v5.711"/><path d="m6.4528 25.336v5.711"/><path d="m9.393 25.336v5.711"/><path d="m12.333 25.336v5.711"/><path d="m15.273 25.336v5.711"/><path d="m18.214 25.336v5.711"/><path d="m21.154 25.336v5.711"/><path d="m24.094 25.336v5.711"/><path d="m27.034 25.336v5.711"/><path d="m29.975 25.336v5.711"/><path d="m32.915 25.336v5.711"/><path d="m35.855 25.336v5.711"/><path d="m38.795 25.336v5.711"/><path d="m41.735 25.336v5.711"/><path d="m44.676 25.336v5.711"/><path d="m47.616 25.336v5.711"/><path d="m50.556 25.336v5.711"/><path d="m53.496 25.336v5.711"/><path d="m56.437 25.336v5.711"/><path d="m59.377 25.336v5.711"/><path d="m62.317 25.336v5.711"/><path d="m65.257 25.336v5.711"/><path d="m68.198 25.336v5.711"/><path d="m71.138 25.336v5.711"/><path d="m74.078 25.336v5.711"/><path d="m77.018 25.336v5.711"/><path d="m79.958 25.336v5.711"/><path d="m82.899 25.336v5.711"/><path d="m85.839 25.336v5.711"/><path d="m88.779 25.336v5.711"/><path d="m91.719 25.336v5.711"/><path d="m94.66 25.336v5.711"/></g></g><g stroke-dashoffset="46.29"><rect x=".68663" y="26.807" width="35.168" height="2.769" fill="#ff8080" stroke="#000" stroke-width=".25502"/><text transform="scale(1.0037 .99635)" x="9.2475615" y="28.96629" fill="#000000" font-family="FreeSans" font-size="2.3454px" stroke-width=".73136" style="line-height:normal;text-decoration-color:#000000" xml:space="preserve"><tspan x="9.2475615" y="28.96629" fill="#000000" stroke-width=".73136">imm[20] Extendido</tspan></text><rect x="91.694" y="26.809" width="2.9508" height="2.7635" fill="#ff8080" stroke="#000" stroke-width=".26458"/></g><g fill="none"><g stroke="#000" stroke-width=".81382"><path d="m41.845 31.499-0.25275 28.224h69.104" marker-end="url(#a)"/><path d="m80.106 9.9185s-0.0066 1.3871 0.02667 2.8405c0.12195 5.3238-32.587-0.28443-32.536 6.8063l0.01945 5.7703" marker-end="url(#b)"/><path d="m30.09 9.9185c0.02401 1.6006-0.0207 1.8369 0.06121 2.6049 0.61886 5.8028 40.848-0.60402 40.802 6.5642-0.01741 2.6889 0.1308 1.9333 0.18493 6.248" marker-end="url(#f)"/><path d="m57.628 7.293c3.5705 12.929 3.1912 10.354 3.1869 17.938" marker-end="url(#e)"/></g><path d="m2.7243 6.3554c0.076251 8.0846 15.898 6.7423 15.362 12.177l0.12783 6.8027" marker-end="url(#b)" stroke="#ff8080" stroke-width=".81382"/><g stroke="#b3b3b3" stroke-linecap="round" stroke-miterlimit="1" stroke-width=".21374"><path d="m76.488 101.54v5.711"/><path d="m73.641 101.54v5.711"/><path d="m79.428 101.54v5.711"/><path d="m82.368 101.54v5.711"/><path d="m85.308 101.54v5.711"/><path d="m88.249 101.54v5.711"/><path d="m91.189 101.54v5.711"/><path d="m94.129 101.54v5.711"/><path d="m97.069 101.54v5.711"/><path d="m100.01 101.54v5.711"/><path d="m102.95 101.54v5.711"/><path d="m105.89 101.54v5.711"/><path d="m108.83 101.54v5.711"/><path d="m111.77 101.54v5.711"/><path d="m114.71 101.54v5.711"/><path d="m117.65 101.54v5.711"/><path d="m120.59 101.54v5.711"/><path d="m123.53 101.54v5.711"/><path d="m126.47 101.54v5.711"/><path d="m129.41 101.54v5.711"/><path d="m132.35 101.54v5.711"/><path d="m135.29 101.54v5.711"/><path d="m138.23 101.54v5.711"/><path d="m141.17 101.54v5.711"/><path d="m144.11 101.54v5.711"/><path d="m147.05 101.54v5.711"/><path d="m149.99 101.54v5.711"/><path d="m152.93 101.54v5.711"/><path d="m155.87 101.54v5.711"/><path d="m158.81 101.54v5.711"/><path d="m161.75 101.54v5.711"/><path d="m164.69 101.54v5.711"/><path d="m167.63 101.54v5.711"/></g></g><rect x="73.573" y="102.91" width="94.062" height="2.769" fill="#9f5" stroke="#000" stroke-dashoffset="46.29" stroke-width=".25502"/><g fill="none" stroke="#b3b3b3" stroke-linecap="round" stroke-miterlimit="1" stroke-width=".21374"><path d="m84.422 40.004v3.8797"/><path d="m82.392 40.004v3.8796"/><path d="m86.518 40.004v3.8797"/><path d="m88.615 40.004v3.8797"/><path d="m90.712 40.004v3.8797"/><path d="m92.808 40.004v3.8797"/><path d="m94.905 40.004v3.8797"/><path d="m97.002 40.004v3.8797"/><path d="m99.098 40.004v3.8796"/><path d="m101.19 40.004v3.8796"/><path d="m103.29 40.004v3.8796"/><path d="m105.39 40.004v3.8796"/><path d="m107.48 40.004v3.8796"/><path d="m109.58 40.004v3.8796"/><path d="m111.68 40.004v3.8796"/><path d="m113.77 40.004v3.8796"/><path d="m115.87 40.004v3.8796"/><path d="m117.97 40.004v3.8796"/><path d="m120.06 40.004v3.8796"/><path d="m122.16 40.004v3.8796"/><path d="m124.26 40.004v3.8796"/><path d="m126.35 40.004v3.8796"/><path d="m128.45 40.004v3.8796"/><path d="m130.55 40.004v3.8796"/><path d="m132.64 40.004v3.8796"/><path d="m134.74 40.004v3.8796"/><path d="m136.84 40.004v3.8796"/><path d="m138.93 40.004v3.8796"/><path d="m141.03 40.004v3.8796"/><path d="m143.13 40.004v3.8796"/><path d="m145.22 40.004v3.8796"/><path d="m147.32 40.004v3.8796"/><path d="m149.42 40.004v3.8796"/></g><rect x="82.343" y="40.93" width="67.074" height="1.8811" fill="#9f5" stroke="#000" stroke-dashoffset="46.29" stroke-width=".25502"/><text transform="scale(1.0283 .97248)" x="112.27722" y="40.938866" fill="#000000" font-family="FreeSans" font-size="3.7739px" stroke-dashoffset="46.29" stroke-width=".73136" style="line-height:normal;text-decoration-color:#000000" xml:space="preserve"><tspan x="112.27722" y="40.938866" fill="#000000" font-family="FreeSans" font-weight="600" stroke-width=".73136">PC <tspan font-size="2.1167px">(da instrução)</tspan></tspan></text><g fill="none" stroke="#b3b3b3" stroke-linecap="round" stroke-miterlimit="1" stroke-width=".21374"><path d="m33.257 91.27v3.0705"/><path d="m34.94 91.27v3.0705"/><path d="m36.623 91.27v3.0705"/><path d="m38.306 91.27v3.0705"/><path d="m39.988 91.27v3.0705"/><path d="m41.671 91.27v3.0705"/><path d="m43.354 91.27v3.0705"/><path d="m45.037 91.27v3.0705"/><path d="m46.72 91.27v3.0705"/><path d="m48.403 91.27v3.0705"/><path d="m50.086 91.27v3.0705"/><path d="m51.769 91.27v3.0705"/><path d="m53.451 91.27v3.0705"/><path d="m55.134 91.27v3.0705"/><path d="m56.817 91.27v3.0705"/><path d="m58.5 91.27v3.0705"/><path d="m60.183 91.27v3.0705"/><path d="m61.866 91.27v3.0705"/><path d="m63.549 91.27v3.0705"/><path d="m65.232 91.27v3.0705"/><path d="m66.914 91.27v3.0705"/><path d="m68.597 91.27v3.0705"/><path d="m70.28 91.27v3.0705"/><path d="m71.963 91.27v3.0705"/><path d="m73.646 91.27v3.0705"/><path d="m75.329 91.27v3.0705"/><path d="m77.012 91.27v3.0705"/><path d="m78.695 91.27v3.0705"/><path d="m80.377 91.27v3.0705"/><path d="m82.06 91.27v3.0705"/><path d="m83.743 91.27v3.0705"/></g><rect x="29.906" y="92.003" width="53.838" height="1.4888" fill="#9f5" stroke="#000" stroke-dashoffset="46.29" stroke-width=".25502"/><g fill="#000000" font-family="FreeSans" stroke-dashoffset="46.29" stroke-width=".73136"><text transform="scale(1.0283 .97248)" x="48.973267" y="93.655678" font-size="3.5278px" style="line-height:normal;text-decoration-color:#000000" xml:space="preserve"><tspan x="48.973267" y="93.655678" fill="#000000" font-family="FreeSans" font-size="3.5278px" font-weight="600" stroke-width=".73136">PC+4</tspan></text><text transform="scale(1.0283 .97248)" x="114.00793" y="113.19525" font-size="3.7739px" style="line-height:normal;text-decoration-color:#000000" xml:space="preserve"><tspan x="114.00793" y="113.19525" fill="#000000" font-family="FreeSans" font-weight="600" stroke-width=".73136">PC <tspan font-size="2.1167px">(próximo)</tspan></tspan></text><text transform="scale(1.0283 .97248)" x="11.83926" y="37.035881" font-size="3.7739px" style="line-height:normal;text-decoration-color:#000000" xml:space="preserve"><tspan x="11.83926" y="37.035881" fill="#000000" font-family="FreeSans" font-weight="600" stroke-width=".73136">Deslocamento</tspan></text></g><g transform="translate(-9.4642 -5.2769)"><g transform="translate(-2)" stroke-dashoffset="46.29"><circle cx="129.08" cy="65" r="6.9201" fill="#fd5" stroke="#000" stroke-width=".26458"/><text x="125.65125" y="67.657928" fill="#000000" font-family="FreeSans" font-size="11.889px" stroke-width=".73135" style="line-height:normal;text-decoration-color:#000000" xml:space="preserve"><tspan x="125.65125" y="67.657928" fill="#000000" stroke-width=".73135">+</tspan></text></g></g><g stroke-dashoffset="46.29"><text x="92.490471" y="29.139166" fill="#000000" font-family="FreeSans" font-size="2.6415px" stroke-width=".73135" style="line-height:normal;text-decoration-color:#000000" xml:space="preserve"><tspan x="92.490471" y="29.139166" fill="#000000" font-size="2.6415px" stroke-width=".73135">0</tspan></text><rect x="59.392" y="26.809" width="2.9508" height="2.7635" fill="#ff8080" stroke="#000" stroke-width=".26458"/><text x="59.469711" y="28.659321" fill="#000000" font-family="FreeSans" font-size="1.6595px" stroke-width=".73135" style="line-height:normal;text-decoration-color:#000000" xml:space="preserve"><tspan x="59.469711" y="28.659321" fill="#000000" font-size="1.6595px" stroke-width=".73135">[11]</tspan></text><rect x="62.342" y="26.809" width="29.377" height="2.7635" fill="#ff8080" stroke="#000" stroke-width=".26458"/><rect x="35.88" y="26.809" width="23.511" height="2.7635" fill="#ff8080" stroke="#000" stroke-width=".26458"/></g><g fill="none" stroke="#b3b3b3" stroke-linecap="round" stroke-miterlimit="1"><path d="m5.0815 0.13229v9.7862" stroke-width=".26458"/><path d="m0.13229 0.13231v9.7862" stroke-width=".26458"/><g stroke-width=".21374"><path d="m10.083 0.13229v9.7862"/><path d="m15.085 0.13229v9.7862"/><path d="m20.086 0.13229v9.7862"/><path d="m25.088 0.13229v9.7862"/><path d="m30.09 0.13229v9.7862"/><path d="m35.091 0.13229v9.7862"/><path d="m40.093 0.1323v9.7862"/><path d="m45.095 0.1323v9.7862"/><path d="m50.096 0.1323v9.7862"/><path d="m55.098 0.1323v9.7862"/><path d="m60.099 0.1323v9.7862"/><path d="m65.101 0.1323v9.7862"/><path d="m70.103 0.1323v9.7862"/><path d="m75.104 0.1323v9.7862"/><path d="m80.106 0.1323v9.7862"/><path d="m85.108 0.1323v9.7862"/><path d="m90.109 0.1323v9.7862"/><path d="m95.111 0.1323v9.7862"/><path d="m100.11 0.1323v9.7862"/><path d="m105.11 0.1323v9.7862"/><path d="m110.12 0.1323v9.7862"/><path d="m115.12 0.13231v9.7862"/><path d="m120.12 0.13231v9.7862"/><path d="m125.12 0.13231v9.7862"/><path d="m130.12 0.13231v9.7862"/><path d="m135.12 0.13231v9.7862"/><path d="m140.13 0.13231v9.7862"/><path d="m145.13 0.13231v9.7862"/><path d="m150.13 0.13231v9.7862"/><path d="m155.13 0.13231v9.7862"/><path d="m160.13 0.13231v9.7862"/></g></g><g stroke="#000" stroke-dashoffset="46.29"><rect x="5.1372" y="2.5564" width="49.96" height="4.7327" fill="#ececec" stroke-width=".26729"/><rect x="60.128" y="2.5559" width="44.69" height="4.7338" fill="#ececec" stroke-width=".26617"/><rect x="125.15" y="2.5551" width="34.969" height="4.7359" fill="#fc0" stroke-width=".26413"/><rect x="100.14" y="2.5551" width="25.006" height="4.7354" fill="#ffe680" stroke-width=".26464"/></g><g stroke-dashoffset="46.29"><text x="165.48048" y="7.4879785" fill="#000000" font-family="FreeSans" font-size="6.8259px" stroke-width=".73135" style="line-height:normal;text-decoration-color:#000000" xml:space="preserve"><tspan x="165.48048" y="7.4879785" fill="#000000" stroke-width=".73135">J</tspan></text><rect x=".12975" y="2.5525" width="5.0075" height="4.7405" fill="#ececec" stroke="#000" stroke-width=".2595"/><rect x="55.111" y="2.5525" width="5.0333" height="4.7405" fill="#ececec" stroke="#000" stroke-width=".2595"/></g><g fill="#000000" font-family="FreeSans" stroke-dashoffset="46.29"><g stroke-width=".73135"><text x="135.56973" y="6.3550286" font-size="4.4234px" style="line-height:normal;text-decoration-color:#000000" xml:space="preserve"><tspan x="135.56973" y="6.3550286" fill="#000000" stroke-width=".73135">1101111</tspan></text><text x="110.64639" y="6.3566918" font-size="4.4234px" style="line-height:normal;text-decoration-color:#000000" xml:space="preserve"><tspan x="110.64639" y="6.3566918" fill="#000000" stroke-width=".73135">rd</tspan></text><text x="22.335291" y="5.9515023" font-size="3.5462px" style="line-height:normal;text-decoration-color:#000000" xml:space="preserve"><tspan x="22.335291" y="5.9515023" fill="#000000" stroke-width=".73135">imm[10:1]</tspan></text><text x="70.102776" y="6.083735" font-size="3.5462px" style="line-height:normal;text-decoration-color:#000000" xml:space="preserve"><tspan x="70.102776" y="6.083735" fill="#000000" stroke-width=".73135">imm[19:12]</tspan></text><text x="0.41730189" y="5.6331811" font-size="2.7057px" style="line-height:normal;text-decoration-color:#000000" xml:space="preserve"><tspan x="0.41730189" y="5.6331811" fill="#000000" stroke-width=".73135">[20]</tspan></text><text x="55.383259" y="5.6331573" font-size="2.7057px" style="line-height:normal;text-decoration-color:#000000" xml:space="preserve"><tspan x="55.383259" y="5.6331573" fill="#000000" stroke-width=".73135">[11]</tspan></text></g><text transform="scale(1.0037 .99635)" x="73.243423" y="28.914597" font-size="2.3454px" stroke-width=".73136" style="line-height:normal;text-decoration-color:#000000" xml:space="preserve"><tspan x="73.243423" y="28.914597" fill="#000000" stroke-width=".73136">imm[10:1] </tspan></text><text transform="scale(1.0037 .99635)" x="42.910629" y="28.995455" font-size="2.3454px" stroke-width=".73136" style="line-height:normal;text-decoration-color:#000000" xml:space="preserve"><tspan x="42.910629" y="28.995455" fill="#000000" stroke-width=".73136">imm[19:12] </tspan></text></g><g transform="matrix(1.5379 0 0 1.5379 -186.95 -337.15)"><g fill="none" stroke="#b3b3b3" stroke-linecap="round" stroke-miterlimit="1" stroke-width=".13898"><path d="m121.73 264v9.7862"/><path d="m126.73 264v9.7862"/><path d="m131.73 264v9.7862"/><path d="m136.73 264v9.7862"/><path d="m141.73 264v9.7862"/><path d="m146.73 264v9.7862"/></g><rect x="121.72" y="266.52" width="25.012" height="4.7333" fill="#ffe680" stroke="#000" stroke-dashoffset="46.29" stroke-width=".17204"/><text x="132.06854" y="270.11475" fill="#000000" font-family="FreeSans" font-size="4.4234px" stroke-dashoffset="46.29" stroke-width=".47554" style="line-height:normal;text-decoration-color:#000000" xml:space="preserve"><tspan x="132.06854" y="270.11475" fill="#000000" stroke-width=".47554">rd</tspan></text></g><rect x="14.87" y="88.053" width="10.002" height="19.727" fill="url(#c)" stroke="#71c837" stroke-dashoffset="46.29" stroke-width=".26458"/><text x="4.6662741" y="112.33313" fill="#000000" fill-opacity=".51212" font-family="'Adwaita Mono'" font-size="3.0794px" stroke-dashoffset="46.29" stroke-width=".26458" style="line-height:normal;text-decoration-color:#000000" xml:space="preserve"><tspan x="4.6662741" y="112.33313" fill="#000000" stroke-width=".26458">32 registradores</tspan></text><path d="m19.55 80.025 0.14388 8.028" fill="none" marker-end="url(#h)" stroke="#000" stroke-width=".40691px"/><path d="m29.906 92.747-5.0338 0.10192" fill="none" marker-end="url(#g)" stroke="#000" stroke-width=".40691px"/></svg>
