<svg width="169.49mm" height="91.697mm" version="1.1" viewBox="0 0 169.49 91.697" xmlns="http://www.w3.org/2000/svg" xmlns:xlink="http://www.w3.org/1999/xlink"><defs><pattern id="e" xlink:href="#h" patternTransform="matrix(0 .2 -.2 0 1e-6 0)" preserveAspectRatio="xMidYMid"/><pattern id="h" width="2" height="10" fill="#8acb96" patternTransform="translate(0) scale(2)" patternUnits="userSpaceOnUse" preserveAspectRatio="xMidYMid"><rect y="-.5" width="1" height="11"/></pattern><marker id="a" overflow="visible" markerHeight="1" markerWidth="1" orient="auto-start-reverse" preserveAspectRatio="xMidYMid" refX="3" viewBox="0 0 1 1"><path transform="scale(.5)" d="m5.77 0-8.65 5v-10z" fill="context-stroke" fill-rule="evenodd" stroke="context-stroke" stroke-width="1pt"/></marker><marker id="b" overflow="visible" markerHeight="2" markerWidth="2" orient="auto-start-reverse" preserveAspectRatio="xMidYMid" refX="3" viewBox="0 0 1 1"><path transform="scale(.5)" d="m5.77 0-8.65 5v-10z" fill="context-stroke" fill-rule="evenodd" stroke="context-stroke" stroke-width="1pt"/></marker><pattern id="d" xlink:href="#g" patternTransform="matrix(0 .2 -.2 0 1e-6 0)" preserveAspectRatio="xMidYMid"/><pattern id="g" width="2" height="10" fill="#8acb96" patternTransform="translate(0) scale(2)" patternUnits="userSpaceOnUse" preserveAspectRatio="xMidYMid"><rect y="-.5" width="1" height="11"/></pattern><pattern id="c" xlink:href="#f" patternTransform="matrix(0 .2 -.2 0 0 -1e-5)" preserveAspectRatio="xMidYMid"/><pattern id="f" width="2" height="10" fill="#8acb96" patternTransform="translate(0) scale(2)" patternUnits="userSpaceOnUse" preserveAspectRatio="xMidYMid"><rect y="-.5" width="1" height="11"/></pattern></defs><g transform="matrix(1.5379 0 0 1.5379 -58.693 -368.22)"><g fill="none" stroke="#b3b3b3" stroke-linecap="round" stroke-miterlimit="1" stroke-width=".13898"><path d="m121.73 264v9.7862"/><path d="m126.73 264v9.7862"/><path d="m131.73 264v9.7862"/><path d="m136.73 264v9.7862"/><path d="m141.73 264v9.7862"/><path d="m146.73 264v9.7862"/></g><rect x="121.72" y="266.52" width="25.012" height="4.7333" fill="#ffe680" stroke="#000" stroke-dashoffset="46.29" stroke-width=".17204"/><text x="132.06854" y="270.11475" fill="#000000" font-family="FreeSans" font-size="4.4234px" stroke-dashoffset="46.29" stroke-width=".47554" style="line-height:normal;text-decoration-color:#000000" xml:space="preserve"><tspan x="132.06854" y="270.11475" fill="#000000" stroke-width=".47554">rd</tspan></text></g><g transform="matrix(.79623 0 0 .79005 3.0045 -147.33)"><g fill="none" stroke="#b3b3b3" stroke-linecap="round" stroke-miterlimit="1" stroke-width=".2695"><path d="m25.343 253.36v9.7862"/><path d="m30.345 253.36v9.7862"/><path d="m35.346 253.36v9.7862"/><path d="m40.348 253.36v9.7862"/></g><rect x="25.341" y="255.89" width="15.003" height="4.7337" fill="#b3ff80" stroke="#000" stroke-dashoffset="46.29" stroke-width=".33359"/><text x="26.975464" y="259.72769" fill="#000000" font-family="FreeSans" font-size="4.4234px" stroke-dashoffset="46.29" stroke-width=".9221" style="line-height:normal;text-decoration-color:#000000" xml:space="preserve"><tspan x="26.975464" y="259.72769" fill="#000000" stroke-width=".9221">funct3</tspan></text></g><g transform="matrix(.98652 0 0 .9769 -4.758 -195.54)"><g fill="none" stroke="#b3b3b3" stroke-linecap="round" stroke-miterlimit="1" stroke-width=".21773"><path d="m10.354 263.55v9.7862"/><path d="m5.4035 263.55v9.7862"/><path d="m15.356 263.55v9.7862"/><path d="m20.358 263.55v9.7862"/><path d="m25.359 263.55v9.7862"/><path d="m30.361 263.55v9.7862"/><path d="m35.363 263.55v9.7862"/><path d="m40.364 263.55v9.7862"/></g><rect x="5.4035" y="266.08" width="35" height="4.7134" fill="#80ffb3" stroke="#000" stroke-dashoffset="46.29" stroke-width=".26952"/><text x="15.488285" y="269.99268" fill="#000000" font-family="FreeSans" font-size="4.4234px" stroke-dashoffset="46.29" stroke-width=".74498" style="line-height:normal;text-decoration-color:#000000" xml:space="preserve"><tspan x="15.488285" y="269.99268" fill="#000000" stroke-width=".74498">funct7</tspan></text></g><g transform="matrix(1.5379 0 0 1.5379 -40.651 -340.71)"><g fill="none" stroke="#b3b3b3" stroke-linecap="round" stroke-miterlimit="1" stroke-width=".13898"><path d="m86.752 230.81v9.7862"/><path d="m91.754 230.81v9.7862"/><path d="m96.755 230.81v9.7862"/><path d="m101.76 230.81v9.7862"/><path d="m106.76 230.81v9.7862"/><path d="m111.76 230.81v9.7862"/></g><rect x="86.752" y="233.34" width="25.006" height="4.7332" fill="#faa" stroke="#000" stroke-dashoffset="46.29" stroke-width=".17204"/><text x="96.622101" y="237.08057" fill="#000000" font-family="FreeSans" font-size="4.4234px" stroke-dashoffset="46.29" stroke-width=".47554" style="line-height:normal;text-decoration-color:#000000" xml:space="preserve"><tspan x="96.622101" y="237.08057" fill="#000000" stroke-width=".47554">rs1</tspan></text></g><g transform="matrix(1.5379 0 0 1.5379 -44.382 -342)"><g fill="none" stroke="#b3b3b3" stroke-linecap="round" stroke-miterlimit="1" stroke-width=".13898"><path d="m51.42 230.95v9.7862"/><path d="m56.422 230.95v9.7862"/><path d="m61.424 230.95v9.7862"/><path d="m66.425 230.95v9.7862"/><path d="m71.427 230.95v9.7862"/><path d="m76.429 230.95v9.7862"/></g><rect x="51.435" y="233.47" width="24.991" height="4.732" fill="#faa" stroke="#000" stroke-dashoffset="46.29" stroke-width=".17204"/><text x="61.025932" y="237.3429" fill="#000000" font-family="FreeSans" font-size="4.4234px" stroke-dashoffset="46.29" stroke-width=".47554" style="line-height:normal;text-decoration-color:#000000" xml:space="preserve"><tspan x="61.025932" y="237.3429" fill="#000000" stroke-width=".47554">rs2</tspan></text></g><g stroke="#000"><circle cx="82.376" cy="66.845" r="15.386" fill="#fd5" stroke-dashoffset="46.29" stroke-width=".26458"/><path d="m53.972 24.346 0.07283 8.0287" fill="none" marker-end="url(#a)" stroke-width=".40691px"/><path d="m112.04 25.429 0.085 6.9463" fill="none" marker-end="url(#b)" stroke-width=".40691px"/><rect x="52.31" y="63" width="8.5423" height="7.6896" fill="#fd5" stroke-dashoffset="46.29" stroke-width=".26458"/><path d="m60.852 66.845h6.138" fill="none" marker-end="url(#a)" stroke-width=".40691px"/></g><text x="75.820526" y="68.728592" fill="#000000" font-family="FreeSans" font-size="6.8028px" stroke-dashoffset="46.29" stroke-width=".73135" style="line-height:normal;text-decoration-color:#000000" xml:space="preserve"><tspan x="75.820526" y="68.728592" fill="#000000" stroke-width=".73135">ALU</tspan></text><g stroke="#71c837" stroke-dashoffset="46.29" stroke-width=".26458"><rect x="107.25" y="32.375" width="10.002" height="19.727" fill="url(#e)"/><rect x="143.13" y="56.982" width="10.002" height="19.727" fill="url(#c)"/><rect x="49.133" y="32.375" width="10.002" height="19.727" fill="url(#d)"/></g><path d="m107.25 46.358-12.993 10.704" fill="none" marker-end="url(#a)" stroke="#000" stroke-width=".81382"/><path d="m59.135 46.596 11.641 10.142" fill="none" marker-end="url(#a)" stroke="#000" stroke-width=".81382"/><g fill="#000000" fill-opacity=".51212" font-family="'Adwaita Mono'" font-size="3.0794px" stroke-dashoffset="46.29" stroke-width=".26458"><text x="47.91864" y="56.05505" style="line-height:normal;text-decoration-color:#000000" xml:space="preserve"><tspan x="47.91864" y="56.05505" fill="#000000" stroke-width=".26458">32 bits </tspan></text><text x="105.64349" y="56.05505" style="line-height:normal;text-decoration-color:#000000" xml:space="preserve"><tspan x="105.64349" y="56.05505" fill="#000000" stroke-width=".26458">32 bits </tspan></text><text x="112.90165" y="70.671127" style="line-height:normal;text-decoration-color:#000000" xml:space="preserve"><tspan x="112.90165" y="70.671127" fill="#000000" stroke-width=".26458">32 bits </tspan></text><text x="132.89471" y="79.999786" style="line-height:normal;text-decoration-color:#000000" xml:space="preserve"><tspan x="132.89471" y="79.999786" fill="#000000" stroke-width=".26458">32 registradores</tspan></text><text x="68.541969" y="40.70042" style="line-height:normal;text-decoration-color:#000000" xml:space="preserve"><tspan x="68.541969" y="40.70042" fill="#000000" stroke-width=".26458">32 registradores</tspan></text></g><g fill="none"><g stroke="#000"><path d="m147.81 48.954 0.14388 8.028" marker-end="url(#a)" stroke-width=".40691px"/><path d="m97.763 66.845h45.363" marker-end="url(#b)" stroke-width=".40691"/><path d="m35.101 66.763 17.209 0.0659" marker-end="url(#b)" stroke-width=".26458px"/><path d="m35.131 58.908 17.179 6.3566" marker-end="url(#b)" stroke-width=".26458px"/></g><g stroke="#b3b3b3" stroke-linecap="round" stroke-miterlimit="1" stroke-width=".21374"><path d="m5.4692 0.10687v9.7862"/><path d="m0.51835 0.10689v9.7862"/><path d="m10.471 0.10687v9.7862"/><path d="m15.472 0.10687v9.7862"/><path d="m20.474 0.10687v9.7862"/><path d="m25.476 0.10688v9.7862"/><path d="m30.477 0.10688v9.7862"/><path d="m35.479 0.10688v9.7862"/><path d="m40.481 0.10688v9.7862"/><path d="m45.482 0.10688v9.7862"/><path d="m50.484 0.10688v9.7862"/><path d="m55.486 0.10688v9.7862"/><path d="m60.487 0.10688v9.7862"/><path d="m65.489 0.10688v9.7862"/><path d="m70.49 0.10688v9.7862"/><path d="m75.492 0.10688v9.7862"/><path d="m80.494 0.10688v9.7862"/><path d="m85.495 0.10688v9.7862"/><path d="m90.497 0.10688v9.7862"/><path d="m95.499 0.10688v9.7862"/><path d="m100.5 0.10688v9.7862"/><path d="m105.5 0.10689v9.7862"/><path d="m110.5 0.10689v9.7862"/><path d="m115.51 0.10689v9.7862"/><path d="m120.51 0.10689v9.7862"/><path d="m125.51 0.10689v9.7862"/><path d="m130.51 0.10689v9.7862"/><path d="m135.51 0.10689v9.7862"/><path d="m140.51 0.10689v9.7862"/><path d="m145.52 0.10689v9.7862"/><path d="m150.52 0.10689v9.7862"/><path d="m155.52 0.10689v9.7862"/><path d="m160.52 0.10689v9.7862"/></g></g><g stroke="#000" stroke-dashoffset="46.29"><g stroke-width=".26458"><rect x=".5183" y="2.6433" width="35" height="4.7134" fill="#80ffb3"/><rect x="125.51" y="2.6332" width="34.985" height="4.7523" fill="#fc0"/><rect x="35.494" y="2.634" width="24.991" height="4.732" fill="#faa"/><rect x="60.487" y="2.6334" width="25.006" height="4.7332" fill="#faa"/></g><rect x="100.5" y="2.6332" width="25.012" height="4.7333" fill="#ffe680" stroke-width=".26458"/><rect x="85.493" y="2.6332" width="15.003" height="4.7337" fill="#b3ff80" stroke-width=".26458"/></g><g fill="#000000" font-family="FreeSans" stroke-dashoffset="46.29"><text x="164.9485" y="7.4625692" font-size="6.8259px" stroke-width=".73135" style="line-height:normal;text-decoration-color:#000000" xml:space="preserve"><tspan x="164.9485" y="7.4625692" fill="#000000" stroke-width=".73135">R</tspan></text><g font-size="4.4234px" stroke-width=".73135"><text x="135.95578" y="6.2227392" style="line-height:normal;text-decoration-color:#000000" xml:space="preserve"><tspan x="135.95578" y="6.2227392" fill="#000000" stroke-width=".73135">0110011</tspan></text><text x="110.84252" y="6.2246542" style="line-height:normal;text-decoration-color:#000000" xml:space="preserve"><tspan x="110.84252" y="6.2246542" fill="#000000" stroke-width=".73135">rd</tspan></text><text x="87.127701" y="6.4758024" style="line-height:normal;text-decoration-color:#000000" xml:space="preserve"><tspan x="87.127701" y="6.4758024" fill="#000000" stroke-width=".73135">funct3</tspan></text><text x="10.603126" y="6.5538778" style="line-height:normal;text-decoration-color:#000000" xml:space="preserve"><tspan x="10.603126" y="6.5538778" fill="#000000" stroke-width=".73135">funct7</tspan></text><text x="70.357407" y="6.3773222" style="line-height:normal;text-decoration-color:#000000" xml:space="preserve"><tspan x="70.357407" y="6.3773222" fill="#000000" stroke-width=".73135">rs1</tspan></text><text x="45.084534" y="6.5030584" style="line-height:normal;text-decoration-color:#000000" xml:space="preserve"><tspan x="45.084534" y="6.5030584" fill="#000000" stroke-width=".73135">rs2</tspan></text></g></g></svg>
